<svg xmlns="http://www.w3.org/2000/svg" width="30.5" height="25.5" viewBox="0 0 30.5 25.5"><g transform="translate(0.17)"><path d="M5.78,15.46H4.61L6,10.08H4v-1H7.49Z" transform="translate(0 0.244)" fill="#5f6c79" stroke="#5f6c79" stroke-miterlimit="10" stroke-width="0.5"/><path d="M15.22,15.46H14l1.44-5.38h-2v-1h3.45Z" transform="translate(-0.41 0.244)" fill="#5f6c79" stroke="#5f6c79" stroke-miterlimit="10" stroke-width="0.5"/><path d="M24.65,12.7H23.48l1.43-5.38h-2v-1h3.45Z" transform="translate(-0.84 0.167)" fill="#5f6c79" stroke="#5f6c79" stroke-miterlimit="10" stroke-width="0.5"/><path d="M29.35,25.25H.81a.748.748,0,0,1-.73-.765V1.015A.748.748,0,0,1,.81.25H29.35a.748.748,0,0,1,.73.765V24.485a.748.748,0,0,1-.73.765ZM1.539,23.719H28.621V1.781H1.539Z" fill="#5f6c79" stroke="#5f6c79" stroke-miterlimit="10" stroke-width="0.5"/><path d="M10.26,25.25a.758.758,0,0,1-.75-.765V1.014a.748.748,0,0,1,1.49,0V24.485A.768.768,0,0,1,10.26,25.25Z" transform="translate(-0.27)" fill="#5f6c79" stroke="#5f6c79" stroke-miterlimit="10" stroke-width="0.5"/><path d="M19.69,25.25a.768.768,0,0,1-.75-.765V1.015a.75.75,0,1,1,1.5,0V24.485A.758.758,0,0,1,19.69,25.25Z" transform="translate(-0.54)" fill="#5f6c79" stroke="#5f6c79" stroke-miterlimit="10" stroke-width="0.5"/><path d="M30.17,16.47H20.74a.75.75,0,0,1,0-1.5h9.43a.75.75,0,1,1,0,1.5Z" transform="translate(-0.84 0.32)" fill="#5f6c79" stroke="#5f6c79" stroke-miterlimit="10" stroke-width="0.5"/></g></svg>