<svg xmlns="http://www.w3.org/2000/svg" width="30.25" height="26" viewBox="0 0 30.25 26"><g transform="translate(0.08 0.25)"><path d="M29.46,24a.58.58,0,0,0-.05-.17.24.24,0,0,0-.1-.1.2.2,0,0,0-.11,0H25.14V20h3.55a.3.3,0,0,0,.09-.1.5.5,0,0,0,0-.16,1.85,1.85,0,0,0,0-.25,2.09,2.09,0,0,0,0-.26.58.58,0,0,0,0-.17.3.3,0,0,0-.09-.1.17.17,0,0,0-.12,0H25.14V15.68h4a.24.24,0,0,0,.12,0,.27.27,0,0,0,.08-.1.78.78,0,0,0,.05-.18.94.94,0,0,0,0-.25,1,1,0,0,0,0-.26.78.78,0,0,0-.05-.18.21.21,0,0,0-.08-.1.24.24,0,0,0-.12,0H24.28a.56.56,0,0,0-.34.12.49.49,0,0,0-.16.43V24.3a.5.5,0,0,0,.16.43.56.56,0,0,0,.34.12H29.2a.2.2,0,0,0,.11,0,.32.32,0,0,0,.1-.1.78.78,0,0,0,.05-.18,1.81,1.81,0,0,0,0-.25A1.87,1.87,0,0,0,29.46,24Z" transform="translate(0.455 0.45)" fill="#5f6c79"/><path d="M29.2,25H24.28a.86.86,0,0,1-.49-.17.73.73,0,0,1-.26-.63V15.1a.73.73,0,0,1,.26-.63.86.86,0,0,1,.49-.17h4.86a.42.42,0,0,1,.23.06.4.4,0,0,1,.2.23,1.09,1.09,0,0,1,.07.24,1.15,1.15,0,0,1,0,.29,1.12,1.12,0,0,1,0,.32.71.71,0,0,1-.06.2.49.49,0,0,1-.17.22.59.59,0,0,1-.26.07H25.39v2.71h3.18a.46.46,0,0,1,.27.09.5.5,0,0,1,.15.17.72.72,0,0,1,.09.27,2.62,2.62,0,0,1,0,.29,2.351,2.351,0,0,1,0,.28A.74.74,0,0,1,29,20a.58.58,0,0,1-.17.2h-.08a.45.45,0,0,1-.18,0H25.39v3.17H29.2a.44.44,0,0,1,.25.08.39.39,0,0,1,.17.17.72.72,0,0,1,.09.27,2.23,2.23,0,0,1,0,.3,2.3,2.3,0,0,1,0,.28,1.21,1.21,0,0,1-.07.24v.06a.46.46,0,0,1-.19.17.41.41,0,0,1-.25.06Zm-.09-10.27H24.28a.3.3,0,0,0-.19.07c-.05,0-.06.16-.06.23v9.14c0,.14,0,.21.06.23a.3.3,0,0,0,.19.07H29.2v-.09a1.38,1.38,0,0,0,0-.22,1.54,1.54,0,0,0,0-.24.64.64,0,0,0,0-.09H24.9V19.74h3.68a.35.35,0,0,0,0-.06,1.41,1.41,0,0,0,0-.22,1.62,1.62,0,0,0,0-.23.64.64,0,0,0,0-.09H24.89V15.43h4.25v-.09a.82.82,0,0,0,0-.22,1,1,0,0,0,0-.19.62.62,0,0,0-.03-.16Z" transform="translate(0.455 0.45)" fill="#5f6c79"/><path d="M18.31,3.32h-.93V1.8h1.85a.48.48,0,0,0,.49-.44.48.48,0,0,0-.49-.44H15a.45.45,0,0,0-.49.41v.08a.46.46,0,0,0,.42.49h2V3.32h-1V2.83H15a1.47,1.47,0,0,1-1.47-1.41h0A1.49,1.49,0,0,1,15,0h4.24A1.47,1.47,0,0,1,20.7,1.37h0a1.47,1.47,0,0,1-1.47,1.41h-.92Z" transform="translate(0.272)" fill="#5f6c79"/><path d="M18.56,3.57h-2.9V3.08H15a1.71,1.71,0,0,1-1.72-1.66A1.76,1.76,0,0,1,15-.25h4.26A1.72,1.72,0,0,1,21,1.35,1.72,1.72,0,0,1,19.23,3h-.67Zm-.93-.5h.43V2.53h1.17a1.21,1.21,0,0,0,1.22-1.17A1.22,1.22,0,0,0,19.24.25H15a1.24,1.24,0,0,0-1.22,1.18A1.21,1.21,0,0,0,15,2.58h1.17v.49h.48v-1H14.91a.71.71,0,0,1-.66-.76V1.27A.69.69,0,0,1,14.5.79.67.67,0,0,1,15,.63h4.23a.73.73,0,0,1,.73.66.74.74,0,0,1-.73.72h-1.6ZM15,1.13a.2.2,0,0,0-.14,0,.21.21,0,0,0-.07.14v.07a.19.19,0,0,0,.05.16.23.23,0,0,0,.14.07h2.19V1.56l2.1-.05h0a.23.23,0,0,0,.24-.22.24.24,0,0,0-.23-.16Z" transform="translate(0.273)" fill="#5f6c79"/><path d="M22,8.89a.48.48,0,0,0-.59-.05l-5.66,3.51A1.76,1.76,0,0,0,15,13.67a1.15,1.15,0,0,0,0,.19,1.71,1.71,0,0,0,.54,1.23,1.9,1.9,0,0,0,1.32.53h.1a1.76,1.76,0,0,0,1.37-.74l3.76-5.37A.44.44,0,0,0,22,8.89Zm-4.5,5.47a.82.82,0,0,1-.63.34.8.8,0,0,1-.73-.25.93.93,0,0,1-.25-.63.76.76,0,0,1,.35-.59l3.66-2.29Z" transform="translate(0.302 0.217)" fill="#5f6c79" stroke="#5f6c79" stroke-miterlimit="10" stroke-width="0.5"/><path d="M20,23.06V24.6a10.75,10.75,0,0,1-3.09.45,11,11,0,0,1-6.51-2.14.76.76,0,0,1-.16-1,.73.73,0,0,1,1-.15A9.46,9.46,0,0,0,20,23.06Z" transform="translate(0.23 0.45)" fill="#5f6c79"/><path d="M16.91,25.3a11.21,11.21,0,0,1-6.66-2.19.969.969,0,0,1,.41-1.77.92.92,0,0,1,.72.19,9.2,9.2,0,0,0,8.5,1.29.24.24,0,0,1,.22,0,.23.23,0,0,1,.11.2V24.6a.25.25,0,0,1-.18.24,11.13,11.13,0,0,1-3.12.46Zm-6.08-3.47h-.07a.48.48,0,0,0-.32.2.5.5,0,0,0,.11.68,10.65,10.65,0,0,0,6.36,2.09,10.41,10.41,0,0,0,2.84-.39v-1a9.69,9.69,0,0,1-8.63-1.47A.45.45,0,0,0,10.83,21.83Z" transform="translate(0.229 0.45)" fill="#5f6c79"/><path d="M27.48,11H25.93A9.51,9.51,0,0,0,9.59,8a.74.74,0,0,1-1,.1.73.73,0,0,1-.1-1,11,11,0,0,1,19,3.94Z" transform="translate(0.455)" fill="#5f6c79"/><path d="M27.48,11.25H25.93a.26.26,0,0,1-.24-.17A9.26,9.26,0,0,0,9.78,8.15.977.977,0,0,1,8.05,7.6a.93.93,0,0,1,.22-.7,11.24,11.24,0,0,1,19.45,4,.24.24,0,0,1,0,.22A.26.26,0,0,1,27.48,11.25Zm-1.37-.5h1A10.74,10.74,0,0,0,8.65,7.22a.45.45,0,0,0-.11.34.52.52,0,0,0,.18.34.49.49,0,0,0,.68-.07,9.761,9.761,0,0,1,16.71,2.92Z" transform="translate(0.455)" fill="#5f6c79"/><path d="M24.36,7.57a.79.79,0,0,1-.53-.22.74.74,0,0,1,0-1l1.51-1.47a.74.74,0,0,1,1,1.06L24.87,7.36a.73.73,0,0,1-.51.21Z" transform="translate(0.455 0.099)" fill="#5f6c79"/><path d="M27.14,7.32a.7.7,0,0,1-.52-.22L24.23,4.66a.73.73,0,0,1,1-1l2.4,2.44a.73.73,0,0,1,0,1,.75.75,0,0,1-.49.22Z" transform="translate(0.455)" fill="#5f6c79"/><path d="M27.14,7.57a1,1,0,0,1-.7-.29L24.05,4.84a1,1,0,0,1-.28-.7,1,1,0,0,1,1.68-.68l2.4,2.44a.985.985,0,0,1-.71,1.67Zm-2.39-3.9a.47.47,0,0,0-.34.14.48.48,0,0,0-.14.34.49.49,0,0,0,.14.34L26.8,6.93a.5.5,0,0,0,.68,0,.49.49,0,0,0,.15-.34.52.52,0,0,0-.14-.35L25.1,3.81a.52.52,0,0,0-.35-.14Z" transform="translate(0.455)" fill="#5f6c79"/><path d="M11.82,11.69H3.16c-.54,0-1-.33-1-.74s.44-.73,1-.73h8.66c.54,0,1,.33,1,.73S12.36,11.69,11.82,11.69Z" transform="translate(0 0.196)" fill="#5f6c79" stroke="#5f6c79" stroke-miterlimit="10" stroke-width="0.5"/><path d="M11.82,19.58H3.16c-.54,0-1-.33-1-.73s.44-.74,1-.74h8.66c.54,0,1,.33,1,.74S12.36,19.58,11.82,19.58Z" transform="translate(0 0.343)" fill="#5f6c79" stroke="#5f6c79" stroke-miterlimit="10" stroke-width="0.5"/><path d="M11.83,15.58H1.17c-.54,0-1-.33-1-.73a.88.88,0,0,1,1-.74H11.83a.88.88,0,0,1,1,.74A.929.929,0,0,1,11.83,15.58Z" transform="translate(0 0.268)" fill="#5f6c79" stroke="#5f6c79" stroke-miterlimit="10" stroke-width="0.5"/></g></svg>