<svg xmlns="http://www.w3.org/2000/svg" width="30" height="25" viewBox="0 0 30 25"><g transform="translate(-20 -708)"><path d="M6,14.988H4.54V2.006H12A1,1,0,0,0,12,0H3.55a1,1,0,0,0-1,1V14.988H1.06a1,1,0,0,0-1,1v5.016a1,1,0,0,0,1,1H6a1,1,0,0,0,1-1V15.991a1,1,0,0,0-1-1ZM5,20H2v-3.01H5Z" transform="translate(19.94 708)" fill="#5f6c79"/><path d="M18,17.98H16.5V1a1,1,0,1,0-2,0V17.98H13a1,1,0,0,0-1,1V24a1,1,0,0,0,1,1h5a1,1,0,0,0,1-1V18.983A1,1,0,0,0,18,17.98Zm-1,5.014H14V19.986h3Z" transform="translate(19.47 708)" fill="#5f6c79"/><path d="M29.94,14.988H28.45V1a1,1,0,0,0-1-1H19a1,1,0,0,0,0,2.006h7.47V15.048H25a1,1,0,0,0-1,1v5.016a1,1,0,0,0,1,1h5a1,1,0,0,0,1-1V16.051a1,1,0,0,0-1.06-1.063ZM28.94,20H26v-3.01h3Z" transform="translate(18.998 708)" fill="#5f6c79"/></g></svg>