<svg xmlns="http://www.w3.org/2000/svg" width="30.5" height="25.5" viewBox="0 0 30.5 25.5"><g transform="translate(-0.24)"><path d="M18.72,24.75H1.24A.76.76,0,0,1,.49,24V6.52a.76.76,0,0,1,.75-.75H18.72a.76.76,0,0,1,.75.75V24A.76.76,0,0,1,18.72,24.75ZM2,23.25H18v-16H2Z" transform="translate(0 0.5)" fill="#5f6c79" stroke="#5f6c79" stroke-miterlimit="10" stroke-width="0.5"/><path d="M11.07,15.26A1.09,1.09,0,1,1,10,14.17,1.09,1.09,0,0,1,11.07,15.26Z" transform="translate(-0.006 0.312)" fill="#5f6c79" stroke="#5f6c79" stroke-miterlimit="10" stroke-width="0.5"/><path d="M10,16.6a1.34,1.34,0,1,1,1.34-1.34A1.34,1.34,0,0,1,10,16.6Zm0-2.18a.84.84,0,1,0,.84.84.85.85,0,0,0-.84-.84Z" transform="translate(-0.006 0.313)" fill="#5f6c79" stroke="#5f6c79" stroke-miterlimit="10" stroke-width="0.5"/><circle cx="1.09" cy="1.09" r="1.09" transform="translate(4.52 10.014)" fill="#5f6c79" stroke="#5f6c79" stroke-miterlimit="10" stroke-width="0.5"/><path d="M5.61,12.23a1.338,1.338,0,0,1-.85-2.36,1.34,1.34,0,0,1,1.74,2A1.3,1.3,0,0,1,5.61,12.23Zm0-2.18a.83.83,0,0,0-.55.2h0a.86.86,0,0,0-.29.58.81.81,0,0,0,.2.61.84.84,0,1,0,.64-1.39Z" transform="translate(0 0.215)" fill="#5f6c79" stroke="#5f6c79" stroke-miterlimit="10" stroke-width="0.5"/><circle cx="1.09" cy="1.09" r="1.09" transform="translate(13.251 18.95)" fill="#5f6c79" stroke="#5f6c79" stroke-miterlimit="10" stroke-width="0.5"/><path d="M14.35,21a1.336,1.336,0,1,1,1.36-1.21A1.34,1.34,0,0,1,14.35,21Zm0-2.18a.83.83,0,0,0-.55.2.86.86,0,0,0-.29.58.81.81,0,0,0,.2.61.84.84,0,0,0,1.48-.49.81.81,0,0,0-.2-.61.85.85,0,0,0-.64-.32Z" transform="translate(-0.009 0.414)" fill="#5f6c79" stroke="#5f6c79" stroke-miterlimit="10" stroke-width="0.5"/><path d="M29.76,19.23h-11a.75.75,0,0,1,0-1.5H29v-16H13V6.52a.75.75,0,1,1-1.5,0V1a.76.76,0,0,1,.75-.75H29.76a.76.76,0,0,1,.75.75V18.48a.76.76,0,0,1-.75.75Z" transform="translate(-0.02)" fill="#5f6c79" stroke="#5f6c79" stroke-miterlimit="10" stroke-width="0.5"/><path d="M26.71,14.34a1.09,1.09,0,1,1-1.09-1.09A1.09,1.09,0,0,1,26.71,14.34Z" transform="translate(-0.02 0.291)" fill="#5f6c79" stroke="#5f6c79" stroke-miterlimit="10" stroke-width="0.5"/><path d="M25.62,15.68a1.34,1.34,0,1,1,.973-.378A1.34,1.34,0,0,1,25.62,15.68Zm0-2.18a.84.84,0,1,0,.84.84.85.85,0,0,0-.84-.84Z" transform="translate(-0.02 0.292)" fill="#5f6c79" stroke="#5f6c79" stroke-miterlimit="10" stroke-width="0.5"/><path d="M26.71,5.14a1.09,1.09,0,1,1-1.09-1.09A1.09,1.09,0,0,1,26.71,5.14Z" transform="translate(-0.02 0.085)" fill="#5f6c79" stroke="#5f6c79" stroke-miterlimit="10" stroke-width="0.5"/><path d="M25.62,6.48a1.34,1.34,0,1,1,.973-.378,1.34,1.34,0,0,1-.973.378Zm0-2.18a.84.84,0,1,0,.84.84A.85.85,0,0,0,25.62,4.3Z" transform="translate(-0.02)" fill="#5f6c79" stroke="#5f6c79" stroke-miterlimit="10" stroke-width="0.5"/></g></svg>