<svg xmlns="http://www.w3.org/2000/svg" width="26.119" height="25.531" viewBox="0 0 26.119 25.531"><g transform="translate(-2.438 0.265)"><path d="M15.55,9.43v.51a1.75,1.75,0,0,1,1.85,1.3v.07h-.13v-.07a1.33,1.33,0,0,0-.32-.65,2,2,0,0,0-1.4-.55V12.9c.89.1,1.78.18,2,1.11.26,1.24-.88,2-2,2v.56h-.12v-.56a1.92,1.92,0,0,1-2-1.46v-.06h.14v.06a1.743,1.743,0,0,0,1.85,1.36V13c-.94-.09-1.86-.22-1.94-1.37a1.39,1.39,0,0,1,.29-1,2.1,2.1,0,0,1,1.65-.73V9.43Zm-1.93,2.23c.08,1,.92,1.16,1.81,1.25V10.06a2,2,0,0,0-1.54.69,1.25,1.25,0,0,0-.27.91Zm1.93,1.4v2.87c1,0,2.1-.7,1.86-1.87-.18-.83-1.02-.92-1.86-1Z" stroke="#5f6c79" stroke-linecap="round" stroke-linejoin="round" stroke-width="1"/><path d="M10.1,25a.7.7,0,0,1-.31-.07.69.69,0,0,1-.39-.68l.48-6.69-6.62-1A.71.71,0,0,1,3,15.28L8.5,11.5,5.16,5.69a.69.69,0,0,1,.06-.79A.71.71,0,0,1,6,4.66l6.4,2L14.84.39a.74.74,0,0,1,1.32,0l2.46,6.23,6.4-2a.71.71,0,0,1,.76.24.69.69,0,0,1,.06.79L22.5,11.5,28,15.28a.71.71,0,0,1-.29,1.28l-6.62,1,.48,6.69a.69.69,0,0,1-.39.68.72.72,0,0,1-.79-.11L15.5,20.28l-4.92,4.55A.72.72,0,0,1,10.1,25ZM5.24,15.44l5.5.84a.7.7,0,0,1,.6.75l-.41,5.55L15,18.8a.71.71,0,0,1,1,0l4.09,3.78L19.66,17a.7.7,0,0,1,.6-.75l5.5-.84-4.59-3.15a.7.7,0,0,1-.22-.93L23.73,6.5,18.41,8.16a.71.71,0,0,1-.87-.41l-2-5.18-2,5.18a.71.71,0,0,1-.87.41L7.27,6.53l2.78,4.83a.7.7,0,0,1-.22.93Z" fill="#728190" stroke="#5f6c79" stroke-miterlimit="10" stroke-width="0.5"/></g></svg>