<svg xmlns="http://www.w3.org/2000/svg" width="25" height="25" viewBox="0 0 25 25"><g transform="translate(-2.76 0.078)"><path d="M20.91,24.722H9.8a.842.842,0,0,1-.66-.328.741.741,0,0,1-.09-.705c1.16-2.9,8.7-22.643,8.78-22.852A.791.791,0,0,1,18.7.36a15.206,15.206,0,0,1,5.53,2.206.733.733,0,0,1,.29.9C23.47,5.964,19.32,15.949,18,19.218h4.68a.8.8,0,0,1,.67.338.692.692,0,0,1,.07.705l-1.74,3.974A.82.82,0,0,1,20.91,24.722ZM11,23.2h9.42l1.08-2.474H16.8a.812.812,0,0,1-.66-.328.741.741,0,0,1-.09-.705c.06-.129,5.11-12.38,6.74-16.215a14.192,14.192,0,0,0-3.69-1.49C17.92,5.079,12.68,18.78,11,23.2Z" transform="translate(-0.524 0)" fill="#5f6c79"/><path d="M20.91,24.922H9.8a1,1,0,0,1-.8-.407.929.929,0,0,1-.11-.894C10,20.719,17.58.995,17.64.776A1,1,0,0,1,18.73.16,15.386,15.386,0,0,1,24.34,2.4a.931.931,0,0,1,.37,1.153C23.72,5.854,20,14.906,18.27,19.02h4.39a1,1,0,0,1,.83.417.919.919,0,0,1,.1.9l-1.75,3.975A1,1,0,0,1,20.91,24.922ZM18.58.547A.6.6,0,0,0,18,.925c0,.159-7.6,19.943-8.76,22.844a.514.514,0,0,0,.06.507.642.642,0,0,0,.5.238H20.91a.59.59,0,0,0,.56-.348l1.75-3.975a.553.553,0,0,0,0-.517.621.621,0,0,0-.51-.248h-5l.11-.278c1.63-3.975,5.53-13.385,6.55-15.75a.545.545,0,0,0-.22-.666A14.814,14.814,0,0,0,18.67.557ZM20.51,23.4H10.67l.1-.268c1.64-4.193,6.37-16.574,7.92-20.648L19,1.75h.17a14.622,14.622,0,0,1,3.74,1.52l.15.089-.06.2c-1.67,3.865-6.72,16.117-6.76,16.217a.514.514,0,0,0,.06.507.6.6,0,0,0,.5.248h5ZM11.25,23h9l.91-2.077H16.8a1,1,0,0,1-.82-.407.929.929,0,0,1-.11-.894c0-.1,5-12.023,6.66-16.058a13.78,13.78,0,0,0-3.31-1.341l-.15.4C17.55,6.619,13,18.572,11.25,23Z" transform="translate(-0.524 0)" fill="#5f6c79"/><path d="M12.59,17a.82.82,0,0,1-.75-.48L6.51,3.62a.73.73,0,0,1,.28-.89A17.31,17.31,0,0,1,18.5.3a.77.77,0,0,1,.57.36.71.71,0,0,1,.07.65L13.35,16.52a.8.8,0,0,1-.75.5ZM8.25,3.64l4.31,10.45L17.28,1.7A16.31,16.31,0,0,0,8.25,3.64Z" fill="#5f6c79"/><path d="M12.6,17.22h0a1,1,0,0,1-.93-.61L6.33,3.69a.94.94,0,0,1,.34-1.13A17.84,17.84,0,0,1,18.52.1a1,1,0,0,1,.72.45.91.91,0,0,1,.08.83L13.53,16.59a1,1,0,0,1-.92.63ZM16,.33A17.1,17.1,0,0,0,6.9,2.89a.54.54,0,0,0-.2.65L12,16.46a.61.61,0,0,0,.56.36h0a.59.59,0,0,0,.56-.37L19,1.24a.52.52,0,0,0-.1-.47A.57.57,0,0,0,18.47.5,17.27,17.27,0,0,0,16,.33ZM12.57,14.64,8,3.55l.15-.08a16.55,16.55,0,0,1,9.15-2h.26ZM8.5,3.73l4.05,9.82L17,1.88A16.09,16.09,0,0,0,8.5,3.73Z" fill="#5f6c79"/><path d="M7.88,7.9h-3l1.85,3.78h2.7l.6,1.5H6.35A.43.43,0,0,1,6,13L3,7a.21.21,0,0,1,.11-.28H7.35Z" transform="translate(0 -0.057)" fill="#5f6c79"/><path d="M6.35,13.38A.63.63,0,0,1,5.79,13l-3-6a.42.42,0,0,1,0-.31A.39.39,0,0,1,3,6.45a.37.37,0,0,1,.18,0H7.49l.68,1.68H5.24l1.65,3.39H9.6l.77,1.9ZM3.16,6.81l3,6.05a.22.22,0,0,0,.2.12H9.78l-.45-1.1H6.64l-2-4.18h3l-.36-.89Z" transform="translate(0 -0.057)" fill="#5f6c79"/><path d="M23.12,7.89h3l-1.85,3.79h-2.7l-.6,1.5h3.72A.43.43,0,0,0,25,13l3-6a.2.2,0,0,0-.11-.28h-4.3Z" transform="translate(-0.524 -0.057)" fill="#5f6c79"/><path d="M24.65,13.38h-4l.77-1.9h2.71L25.76,8.1H22.83l.68-1.68h4.33a.34.34,0,0,1,.18,0,.42.42,0,0,1,.23.24.37.37,0,0,1,0,.31l-3,6a.64.64,0,0,1-.6.41ZM21.22,13h3.43a.23.23,0,0,0,.2-.12l3-6H23.76l-.36.89h3l-2,4.18H21.67Z" transform="translate(-0.524 -0.056)" fill="#5f6c79"/></g></svg>