<svg xmlns="http://www.w3.org/2000/svg" width="26" height="25" viewBox="0 0 26 25"><path d="M13,8.328a6.53,6.53,0,0,0-6.665,6.41A6.53,6.53,0,0,0,13,21.147a6.53,6.53,0,0,0,6.665-6.41A6.53,6.53,0,0,0,13,8.328ZM13,18.9a4.26,4.26,0,0,1-4.333-4.167A4.256,4.256,0,0,1,13,10.571a4.256,4.256,0,0,1,4.333,4.167A4.26,4.26,0,0,1,13,18.9ZM21.489,8.066a1.556,1.556,0,1,1-1.554-1.5A1.522,1.522,0,0,1,21.489,8.066ZM25.9,9.583a7.244,7.244,0,0,0-2.1-5.238,7.917,7.917,0,0,0-5.447-2.019c-2.146-.117-8.579-.117-10.725,0A7.907,7.907,0,0,0,2.186,4.339a7.267,7.267,0,0,0-2.1,5.238c-.122,2.064-.122,8.251,0,10.315a7.244,7.244,0,0,0,2.1,5.238A7.928,7.928,0,0,0,7.632,27.15c2.146.117,8.579.117,10.725,0A7.865,7.865,0,0,0,23.8,25.13a7.291,7.291,0,0,0,2.1-5.238c.122-2.064.122-8.245,0-10.309ZM23.131,22.107a4.306,4.306,0,0,1-2.471,2.376c-1.711.653-5.771.5-7.662.5s-5.957.145-7.662-.5a4.306,4.306,0,0,1-2.471-2.376c-.679-1.646-.522-5.551-.522-7.369s-.151-5.729.522-7.369A4.306,4.306,0,0,1,5.335,4.992c1.711-.653,5.771-.5,7.662-.5s5.957-.145,7.662.5a4.306,4.306,0,0,1,2.471,2.376c.679,1.646.522,5.551.522,7.369S23.809,20.467,23.131,22.107Z" transform="translate(0.005 -2.238)" fill="#5f6c79"/></svg>