<svg xmlns="http://www.w3.org/2000/svg" width="25.25" height="25.25" viewBox="0 0 25.25 25.25"><g transform="translate(-2.375 0.125)"><path d="M15,25A12.5,12.5,0,1,1,27.5,12.5,12.5,12.5,0,0,1,15,25ZM15,1.36A11.14,11.14,0,1,0,26.14,12.5,11.14,11.14,0,0,0,15,1.36Z" fill="#5f6c79" stroke="#5f6c79" stroke-miterlimit="10" stroke-width="0.25"/><path d="M15,22.27a9.77,9.77,0,1,1,9.77-9.77A9.77,9.77,0,0,1,15,22.27ZM15,4.09a8.41,8.41,0,1,0,8.41,8.41A8.41,8.41,0,0,0,15,4.09Z" fill="#5f6c79" stroke="#5f6c79" stroke-miterlimit="10" stroke-width="0.25"/><path d="M15,13.18a.65.65,0,0,1-.48-.2L10.66,9.13a.68.68,0,0,1,0-1,.7.7,0,0,1,1,0L15.48,12a.67.67,0,0,1,0,1,.65.65,0,0,1-.48.18Z" fill="#5f6c79" stroke="#5f6c79" stroke-miterlimit="10" stroke-width="0.25"/><path d="M11.14,17a.69.69,0,0,1-.48-.2.68.68,0,0,1,0-1L14.52,12a.707.707,0,0,1,1,1l-3.85,3.86A.71.71,0,0,1,11.14,17Z" fill="#5f6c79" stroke="#5f6c79" stroke-miterlimit="10" stroke-width="0.25"/><path d="M18.86,17a.71.71,0,0,1-.49-.2L14.52,13a.707.707,0,0,1,1-1l3.86,3.85a.68.68,0,0,1,0,1A.69.69,0,0,1,18.86,17Z" fill="#5f6c79" stroke="#5f6c79" stroke-miterlimit="10" stroke-width="0.25"/><path d="M15,13.18a.65.65,0,0,1-.48-.2.67.67,0,0,1,0-1l3.85-3.86a.7.7,0,0,1,1,0,.68.68,0,0,1,0,1L15.48,13A.65.65,0,0,1,15,13.18Z" fill="#5f6c79" stroke="#5f6c79" stroke-miterlimit="10" stroke-width="0.25"/><path d="M18.64,10.45a1.59,1.59,0,1,1,1.59-1.59,1.59,1.59,0,0,1-1.59,1.59Zm0-1.81a.22.22,0,0,0-.23.22c0,.25.45.25.45,0A.22.22,0,0,0,18.64,8.64Z" fill="#5f6c79" stroke="#5f6c79" stroke-miterlimit="10" stroke-width="0.25"/><path d="M11.36,10.45A1.59,1.59,0,1,1,12.517,10,1.59,1.59,0,0,1,11.36,10.45Zm0-1.81a.22.22,0,0,0-.22.22c0,.25.45.25.45,0a.22.22,0,0,0-.23-.22Z" fill="#5f6c79" stroke="#5f6c79" stroke-miterlimit="10" stroke-width="0.25"/><path d="M11.36,17.73a1.6,1.6,0,1,1,1.154-.451,1.59,1.59,0,0,1-1.154.451Zm0-1.82a.22.22,0,0,0-.22.23c0,.25.45.25.45,0A.23.23,0,0,0,11.36,15.91Z" fill="#5f6c79" stroke="#5f6c79" stroke-miterlimit="10" stroke-width="0.25"/><path d="M18.64,17.73a1.59,1.59,0,1,1,1.59-1.59,1.59,1.59,0,0,1-1.59,1.59Zm0-1.82a.23.23,0,0,0-.23.23c0,.25.45.25.45,0a.22.22,0,0,0-.22-.23Z" fill="#5f6c79" stroke="#5f6c79" stroke-miterlimit="10" stroke-width="0.25"/></g></svg>