<svg xmlns="http://www.w3.org/2000/svg" width="29.506" height="25.503" viewBox="0 0 29.506 25.503"><g transform="translate(-0.861 -0.016)"><path d="M10.379,25.27a.747.747,0,0,1-.687-.44L1.171,6.313a.828.828,0,0,1,0-.6.752.752,0,0,1,.414-.429L13.115.342A.749.749,0,0,1,13.7.317a.761.761,0,0,1,.427.4l8.512,18.527a.765.765,0,0,1,.02.6.752.752,0,0,1-.414.426L10.672,25.208a.789.789,0,0,1-.293.061ZM2.877,6.384l7.876,17.127,10.1-4.346L12.974,2.039Z" transform="translate(0 0)" fill="#5f6c79" stroke="#5f6c79" stroke-miterlimit="10" stroke-width="0.5"/><path d="M12.55,14.94a.75.75,0,0,1-.26,0L9.19,13.8a.75.75,0,0,1-.44-1l1.19-3a.75.75,0,0,1,1-.42L14,10.52a.75.75,0,0,1,.44,1l-1.2,3A.75.75,0,0,1,12.55,14.94Zm-2.12-2.33,1.69.62.64-1.56L11.06,11Z" transform="translate(0.068 0.264)" fill="#5f6c79" stroke="#5f6c79" stroke-miterlimit="10" stroke-width="0.25"/><path d="M20.72,25.27a.785.785,0,0,1-.3-.061l-5.21-2.26a.774.774,0,0,1-.357-.984.745.745,0,0,1,.937-.427l4.55,1.973,7.8-17.137L18.13,2.039,16.18,6.333a.745.745,0,0,1-1,.368.776.776,0,0,1-.36-1.022L17.08.72a.757.757,0,0,1,.423-.4.735.735,0,0,1,.577.024L29.44,5.28a.779.779,0,0,1,.41.429.814.814,0,0,1,0,.593L21.4,24.83a.759.759,0,0,1-.68.44Z" transform="translate(0.208)" fill="#5f6c79" stroke="#5f6c79" stroke-miterlimit="10" stroke-width="0.5"/><path d="M19.23,14.65A.75.75,0,0,1,19,13.2l1.6-.59L19.94,11l-1.8.66a.75.75,0,1,1-.51-1.41l2.47-.9a.75.75,0,0,1,1,.42l1.19,3a.75.75,0,0,1-.44,1l-2.32.86a.78.78,0,0,1-.3.02Z" transform="translate(0.141 0.26)" fill="#5f6c79" stroke="#5f6c79" stroke-miterlimit="10" stroke-width="0.25"/></g></svg>