<svg xmlns="http://www.w3.org/2000/svg" viewBox="0 0 29.54 25.5"><path d="M21.86,20a.81.81,0,0,1-.54-.19.87.87,0,0,1-.13-1.22,9.39,9.39,0,0,0,0-11.63.88.88,0,0,1,.13-1.23.87.87,0,0,1,1.2.12h0a11.15,11.15,0,0,1,0,13.82A.81.81,0,0,1,21.86,20Z" transform="translate(0.02 -0.01)" fill="#5f6c79" stroke="#5f6c79" stroke-miterlimit="10" stroke-width="0.5"/><path d="M7.74,20a.86.86,0,0,1-.67-.32,11.17,11.17,0,0,1,0-13.89.88.88,0,0,1,1.21-.13h0a.88.88,0,0,1,.12,1.23,9.38,9.38,0,0,0,0,11.68.88.88,0,0,1-.13,1.23A.81.81,0,0,1,7.74,20Z" transform="translate(0.02 -0.01)" fill="#5f6c79" stroke="#5f6c79" stroke-miterlimit="10" stroke-width="0.5"/><path d="M14.78,18.36a5.44,5.44,0,1,1,5.44-5.44,5.43,5.43,0,0,1-5.44,5.44ZM10.92,13a3.86,3.86,0,1,0,0-.07Z" transform="translate(0.02 -0.01)" fill="#5f6c79" stroke="#5f6c79" stroke-miterlimit="10" stroke-width="0.5"/><path d="M6.84,25.15A.87.87,0,0,1,6.32,25a15.33,15.33,0,0,1-3-21.47A15.63,15.63,0,0,1,6.24.57.87.87,0,0,1,7.24,2,13.66,13.66,0,0,0,4.81,21.11a13.34,13.34,0,0,0,2.5,2.48.87.87,0,0,1,.17,1.22h0A.86.86,0,0,1,6.84,25.15Z" transform="translate(0.02 -0.01)" fill="#5f6c79" stroke="#5f6c79" stroke-miterlimit="10" stroke-width="0.5"/><path d="M22.58,25.26a.87.87,0,0,1-.85-.9.85.85,0,0,1,.34-.67A13.64,13.64,0,0,0,24.89,4.61,14,14,0,0,0,22.22,1.9.87.87,0,0,1,21.84.73.84.84,0,0,1,22.3.32a.87.87,0,0,1,.92.2,15.37,15.37,0,0,1-.17,24.57A.75.75,0,0,1,22.58,25.26Z" transform="translate(0.02 -0.01)" fill="#5f6c79" stroke="#5f6c79" stroke-miterlimit="10" stroke-width="0.5"/></svg>