<svg xmlns="http://www.w3.org/2000/svg" width="30.651" height="21.507" viewBox="0 0 30.651 21.507"><g transform="translate(0.054 -1.538)"><path d="M5,22.788a2.21,2.21,0,0,1-.37,0c-1.2-.171-2.13-1.487-2.69-2.552A15.3,15.3,0,0,1,1.5,7.286c1.71-3.506,3.9-4.762,5.44-5.2a6.62,6.62,0,0,1,3.85,0l.21.08h.08a4.987,4.987,0,0,1,.78.332h0a.764.764,0,0,1,.41.673.77.77,0,0,1-1.11.653,4.249,4.249,0,0,0-.6-.251h-.1a5.157,5.157,0,0,0-3.09,0C5.53,4.01,4,5.527,2.86,7.928a13.862,13.862,0,0,0,.36,11.564c.61,1.155,1.24,1.728,1.59,1.778a1.872,1.872,0,0,0,.71-.08c.59-.2,1.18-.844,1.91-2.1a25.5,25.5,0,0,1,2.45-3.265A.742.742,0,1,1,11,16.8a24.913,24.913,0,0,0-2.3,3.014C7.79,21.471,7,22.3,6,22.617a3.286,3.286,0,0,1-1,.171Z" fill="#5f6c79" stroke="#5f6c79" stroke-miterlimit="10" stroke-width="0.5"/><path d="M26,22.788a3.406,3.406,0,0,1-1-.171c-1-.321-1.79-1.125-2.73-2.763a24.792,24.792,0,0,0-2.31-3.014.768.768,0,0,1,.075-1.08.76.76,0,0,1,1.075.075,25.5,25.5,0,0,1,2.46,3.245c.74,1.276,1.31,1.9,1.9,2.1a1.9,1.9,0,0,0,.71.08c.36-.05,1-.623,1.6-1.778a13.883,13.883,0,0,0,.37-11.554c-1.15-2.4-2.68-3.918-4.49-4.39a5.127,5.127,0,0,0-3,0,4.058,4.058,0,0,0-.58.221l-.21.1a.778.778,0,0,1-1-.382.715.715,0,0,1,.36-1h.05l.12-.05a6.2,6.2,0,0,1,.83-.332,6.571,6.571,0,0,1,3.86,0c1.53.432,3.72,1.688,5.42,5.174a15.3,15.3,0,0,1-.39,12.94c-.56,1.065-1.49,2.381-2.7,2.552a1.991,1.991,0,0,1-.42.03Z" transform="translate(-0.487 0)" fill="#5f6c79" stroke="#5f6c79" stroke-miterlimit="10" stroke-width="0.5"/><path d="M15.69,4.71a12.78,12.78,0,0,1-4.42-.84h0a7.44,7.44,0,0,1-.76-.33.59.59,0,0,1-.23-.14A.75.75,0,0,1,11,2.12l.14.07c.07,0,.31.14.65.27h.05a9.85,9.85,0,0,0,7.36,0l.19-.08a.74.74,0,0,1,1,.29.75.75,0,0,1-.29,1l-.25.12a9.88,9.88,0,0,1-4.16.92Z" transform="translate(-0.237)" fill="#5f6c79" stroke="#5f6c79" stroke-miterlimit="10" stroke-width="0.5"/><path d="M20.55,17H10.45a.75.75,0,0,1,0-1.5h10.1a.75.75,0,0,1,0,1.5Z" transform="translate(-0.243 0.069)" fill="#5f6c79" stroke="#5f6c79" stroke-miterlimit="10" stroke-width="0.5"/><rect width="2.25" height="6.74" rx="0.97" transform="translate(7.67 5.928)" fill="#5f6c79" stroke="#5f6c79" stroke-miterlimit="10" stroke-width="0.5"/><rect width="2.25" height="6.74" rx="0.97" transform="translate(12.182 8.183) rotate(90)" fill="#5f6c79" stroke="#5f6c79" stroke-miterlimit="10" stroke-width="0.5"/><circle cx="1.26" cy="1.26" r="1.26" transform="translate(21.819 5.932)" fill="#5f6c79" stroke="#5f6c79" stroke-miterlimit="10" stroke-width="0.5"/><circle cx="1.26" cy="1.26" r="1.26" transform="translate(18.714 8.465)" fill="#5f6c79" stroke="#5f6c79" stroke-miterlimit="10" stroke-width="0.5"/><circle cx="1.26" cy="1.26" r="1.26" transform="translate(22.447 9.742)" fill="#5f6c79" stroke="#5f6c79" stroke-miterlimit="10" stroke-width="0.5"/></g></svg>