<svg xmlns="http://www.w3.org/2000/svg" width="25" height="25.06" viewBox="0 0 25 25.06"><g transform="translate(-609 -30)"><g transform="translate(608.5 29.53)"><path d="M4.48,25.12a3.63,3.63,0,0,1-3.6-3.59v-.2A20.47,20.47,0,0,1,21.33.88h.19a3.63,3.63,0,0,1,3.6,3.59v.2a20.29,20.29,0,0,1-6,14.46,20.29,20.29,0,0,1-14.46,6Z" fill="#a66032"/><path d="M21.33,1.25h.19a3.27,3.27,0,0,1,3.23,3.23v.19A20.076,20.076,0,0,1,4.67,24.75H4.48a3.27,3.27,0,0,1-3.23-3.23v-.19A20.11,20.11,0,0,1,21.33,1.25h0m0-.75h0A20.83,20.83,0,0,0,.5,21.33v.2a4,4,0,0,0,4,4h.2A20.82,20.82,0,0,0,25.5,4.67v-.2a4,4,0,0,0-4-4Z" fill="#364556"/><path d="M25.5,4.47v.2A20.83,20.83,0,0,1,4.66,25.5H4.47A4,4,0,0,1,.61,22.39a3.56,3.56,0,0,0,.86.11h.19A20.83,20.83,0,0,0,22.5,1.67v-.2a3.56,3.56,0,0,0-.11-.86A4,4,0,0,1,25.5,4.47Z" opacity="0.1"/><path d="M.5,21.53v-.2A20.83,20.83,0,0,1,21.34.5h.19a4,4,0,0,1,3.86,3.11,3.56,3.56,0,0,0-.86-.11h-.19A20.83,20.83,0,0,0,3.5,24.33v.2a3.56,3.56,0,0,0,.11.86A4,4,0,0,1,.5,21.53Z" fill="#fff" opacity="0.2"/><path d="M.86,17.46,8.5,25.15l1.02-.22L1.07,16.49Z" fill="#fff"/><path d="M17.35.97l7.68,7.64-.22,1.02L16.37,1.18Z" fill="#fff"/><path d="M21.33,1.25h.19a3.27,3.27,0,0,1,3.23,3.23v.19A20.076,20.076,0,0,1,4.67,24.75H4.48a3.27,3.27,0,0,1-3.23-3.23v-.19A20.11,20.11,0,0,1,21.33,1.25h0m0-.75h0A20.83,20.83,0,0,0,.5,21.33v.2a4,4,0,0,0,4,4h.2A20.82,20.82,0,0,0,25.5,4.67v-.2a4,4,0,0,0-4-4Z" fill="#364556"/><line x1="9.9" y2="9.9" transform="translate(8.05 8.05)" fill="#fff" stroke="#fff" stroke-linecap="round" stroke-linejoin="round" stroke-width="0.75"/><line x2="2.83" y2="2.83" transform="translate(15.12 8.05)" fill="#fff" stroke="#fff" stroke-linecap="round" stroke-linejoin="round" stroke-width="0.75"/><line x2="2.82" y2="2.82" transform="translate(11.59 11.59)" fill="#fff" stroke="#fff" stroke-linecap="round" stroke-linejoin="round" stroke-width="0.75"/><line x2="2.83" y2="2.83" transform="translate(8.05 15.12)" fill="#fff" stroke="#fff" stroke-linecap="round" stroke-linejoin="round" stroke-width="0.75"/></g></g></svg>