<svg xmlns="http://www.w3.org/2000/svg" width="25" height="25" viewBox="0 0 25 25"><g transform="translate(-777 -45)"><g transform="translate(777 45)"><path d="M2.5,25.13a1.63,1.63,0,0,1-1-2.91l17.206-20a3.646,3.646,0,0,1,6.46,2.28,3.577,3.577,0,0,1-1.082,2.57L3.774,24.53A1.724,1.724,0,0,1,2.5,25.13Z" transform="translate(-0.58 -0.5)" fill="#edba70"/><path d="M21.531,1.25a3.249,3.249,0,0,1,2.313,5.54l-.34.29L3.524,24.24h0a1.273,1.273,0,0,1-1,.44,1.214,1.214,0,0,1-.791-2.18h.1l17.2-20.02h0a3.237,3.237,0,0,1,2.5-1.18m0-.75A4.008,4.008,0,0,0,18.446,2h0L1.281,22A2,2,0,0,0,2.5,25.5,2,2,0,0,0,4,24.81L24.034,7.65l.361-.31A4,4,0,0,0,21.531.5Z" transform="translate(-0.58 -0.5)" fill="#364556"/><path d="M.931,24.73a1.987,1.987,0,0,0,2.614-.32L23.264,7.82l.361-.3a3.816,3.816,0,0,0-.541-5.92,3.766,3.766,0,0,1,.711,2.2,3.827,3.827,0,0,1-1.162,2.75l-.361.3L2.553,23.44a2,2,0,0,1-1.492.67,1.865,1.865,0,0,1-.481-.06Z" transform="translate(-0.58 -0.5)" opacity="0.1"/><path d="M2,25.43a1.858,1.858,0,0,1-.11-.43,2,2,0,0,1,.671-1.49L19.178,3.77l.3-.36a3.839,3.839,0,0,1,2.754-1.16,3.78,3.78,0,0,1,2.2.75,3.83,3.83,0,0,0-5.929-.54l-.3.36L1.591,22.47a2.032,2.032,0,0,0-.32,2.65Z" transform="translate(-0.58 -0.5)" fill="#fff" opacity="0.2"/><line x1="3" y1="3" transform="translate(3.42 18.5)" fill="#edba70" stroke="#364556" stroke-miterlimit="10" stroke-width="0.75"/><circle cx="4.21" cy="4.21" r="4.21" transform="translate(15.746 15.79)" fill="none" stroke="#364556" stroke-miterlimit="10" stroke-width="0.25"/><circle cx="4.21" cy="4.21" r="4.21" transform="translate(15.746 15.79)" fill="#fff" stroke="#364556" stroke-miterlimit="10" stroke-width="0.25"/><path d="M23.34,23.62a4.37,4.37,0,0,1,0-6.24l.22.22a4.06,4.06,0,0,0,0,5.8Z" transform="translate(-0.544 -0.5)" fill="#364556" stroke="#364556" stroke-miterlimit="10" stroke-width="0.25"/><path d="M17.66,23.62l-.22-.22a4.06,4.06,0,0,0,0-5.8l.22-.22a4.37,4.37,0,0,1,0,6.24Z" transform="translate(-0.554 -0.5)" fill="#364556" stroke="#364556" stroke-miterlimit="10" stroke-width="0.25"/><g transform="translate(15.656 15.688)" opacity="0.2"><path d="M16.2,20.41A4.21,4.21,0,0,1,23.87,18a4.15,4.15,0,0,0-2.4-.76,4.22,4.22,0,0,0-4.22,4.22,4.15,4.15,0,0,0,.76,2.4,4.19,4.19,0,0,1-1.81-3.45Z" transform="translate(-16.2 -16.188)" fill="#fff"/></g><g transform="translate(16.456 16.5)" opacity="0.2"><path d="M24.71,20.5A4.22,4.22,0,0,1,17,22.91,4.22,4.22,0,0,0,22.91,17,4.21,4.21,0,0,1,24.71,20.5Z" transform="translate(-17 -17)"/></g><path d="M20.5,24.87a4.37,4.37,0,1,1,4.37-4.37,4.37,4.37,0,0,1-4.37,4.37Zm0-8.43a4.06,4.06,0,1,0,4.06,4.06A4.06,4.06,0,0,0,20.5,16.44Z" transform="translate(-0.544 -0.5)" fill="#364556" stroke="#364556" stroke-miterlimit="10" stroke-width="0.25"/><path d="M21.531,1.25a3.249,3.249,0,0,1,2.313,5.54l-.34.29L3.524,24.24h0a1.273,1.273,0,0,1-1,.44,1.214,1.214,0,0,1-.791-2.18h.1l17.2-20.02h0a3.237,3.237,0,0,1,2.5-1.18m0-.75A4.008,4.008,0,0,0,18.446,2h0L1.281,22A2,2,0,0,0,2.5,25.5,2,2,0,0,0,4,24.81L24.034,7.65l.361-.31A4,4,0,0,0,21.531.5Z" transform="translate(-0.58 -0.5)" fill="#364556"/></g></g></svg>