<svg xmlns="http://www.w3.org/2000/svg" width="25.49" height="25.528" viewBox="0 0 25.49 25.528"><g transform="translate(-0.385 -0.385)"><ellipse cx="12.37" cy="12.389" rx="12.37" ry="12.389" transform="translate(0.76 0.76)" fill="#e4a025"/><path d="M25.5,13.147A12.367,12.367,0,0,1,3,20.219,12.381,12.381,0,0,0,20.19,3,12.387,12.387,0,0,1,25.5,13.147Z" transform="translate(0 0)" opacity="0.2"/><path d="M.5,12.891A12.367,12.367,0,0,1,23,5.819,12.381,12.381,0,0,0,5.81,23.038,12.387,12.387,0,0,1,.5,12.891Z" transform="translate(0 0)" fill="#fff" opacity="0.2"/><path d="M21.86,4.37a12.36,12.36,0,0,0-2.55,7.52,7.311,7.311,0,0,0,.07,1.24A12.33,12.33,0,0,0,23,20.65" transform="translate(0 0.017)" fill="none" stroke="#364556" stroke-miterlimit="10" stroke-width="0.75"/><path d="M3.85,5a12.345,12.345,0,0,1,3.09,8.2,12.345,12.345,0,0,1-3.09,8.2" fill="none" stroke="#364556" stroke-miterlimit="10" stroke-width="0.75"/><line y2="24.778" transform="translate(13.13 0.76)" fill="none" stroke="#364556" stroke-miterlimit="10" stroke-width="0.75"/><line x1="24.74" transform="translate(0.76 13.149)" fill="none" stroke="#364556" stroke-miterlimit="10" stroke-width="0.75"/><ellipse cx="12.37" cy="12.389" rx="12.37" ry="12.389" transform="translate(0.76 0.76)" fill="none"/><ellipse cx="12.37" cy="12.389" rx="12.37" ry="12.389" transform="translate(0.76 0.76)" fill="none" stroke="#364556" stroke-miterlimit="10" stroke-width="0.75"/></g></svg>