<svg xmlns="http://www.w3.org/2000/svg" width="21.64" height="25" viewBox="0 0 21.64 25"><g transform="translate(-2.18 -0.309)"><path d="M2.67,5.1H21.21a2.145,2.145,0,0,1,2.17,2.119V17.413A3.529,3.529,0,0,1,19.81,20.9H6.24a3.529,3.529,0,0,1-3.57-3.486V5.1Z" transform="translate(0 0)" fill="#ff7a2c"/><path d="M19.81,21.019H6.24a3.658,3.658,0,0,1-3.7-3.6V5H21.21a2.274,2.274,0,0,1,2.3,2.247V17.415A3.658,3.658,0,0,1,19.81,21.019ZM2.79,5.215v12.2a3.411,3.411,0,0,0,3.45,3.36H19.81a3.411,3.411,0,0,0,3.45-3.36V7.217a2.028,2.028,0,0,0-2.05-1.954Z" fill="#364556"/><path d="M21.69,5a4.084,4.084,0,0,0-1.32-.215H2.23V17.134c0,2.277,2.28,4.125,5.09,4.125H18.73c2.8,0,5.09-1.847,5.09-4.125v-9.6A2.861,2.861,0,0,0,21.69,5Zm1.25,12.178c0,1.886-1.89,3.421-4.21,3.421H7.32c-2.32,0-4.21-1.535-4.21-3.421V5.445H20.37a2.914,2.914,0,0,1,1.32.3,2.034,2.034,0,0,1,1.25,1.789Z" fill="#364556"/><path d="M19.57,3.58V5.76a6.12,6.12,0,0,1-6.31,5.93H8.86a6.39,6.39,0,0,1-4.74-2,5.44,5.44,0,0,1-1.24-2,5.18,5.18,0,0,1-.32-1.85V3.58A3,3,0,0,1,5.63.69H16.49a3,3,0,0,1,3.08,2.89Z" fill="#ff7a2c"/><path d="M13.26,11.81H8.86A6.52,6.52,0,0,1,4,9.73,5.49,5.49,0,0,1,2.76,7.65a5.41,5.41,0,0,1-.33-1.89V3.58a3.12,3.12,0,0,1,3.2-3H16.49a3.12,3.12,0,0,1,3.2,3V5.76a6.25,6.25,0,0,1-6.43,6.05ZM5.63.81A2.86,2.86,0,0,0,2.68,3.58V5.76A5.36,5.36,0,0,0,3,7.56a5.32,5.32,0,0,0,1.22,2,6.28,6.28,0,0,0,4.65,2h4.4a6,6,0,0,0,6.18-5.8V3.58a2.86,2.86,0,0,0-3-2.77Z" fill="#364556"/><g transform="translate(7.16 4.701)" opacity="0.3"><path d="M21.69,5V6.8a6.11,6.11,0,0,1-6.3,5.93H11A6.49,6.49,0,0,1,7.16,11.5a6.42,6.42,0,0,0,1.71.23h4.4A6.12,6.12,0,0,0,19.58,5.8v-1h.8A4,4,0,0,1,21.69,5Z" transform="translate(-7.16 -4.8)"/></g><rect width="12.18" height="4.05" transform="translate(6.93 20.899)" fill="#edba70"/><path d="M19.56,25.69H6.49V20.91H19.56ZM7.37,25H18.68V21.64H7.37Z" transform="translate(0 -0.381)" fill="#364556"/><g transform="translate(2.83 1.068)" opacity="0.3"><path d="M18.82,2.34A3.58,3.58,0,0,0,17.37,2H7A2.75,2.75,0,0,0,4,4.45V9.11a1.9,1.9,0,0,0,.07.54,5.44,5.44,0,0,1-1.24-2V3.53a2.76,2.76,0,0,1,3-2.45H16.2a3.15,3.15,0,0,1,2.62,1.26Z" transform="translate(-2.83 -1.068)" fill="#fff"/></g><path d="M13.26,12.06H8.86a6.79,6.79,0,0,1-5-2.16A5.88,5.88,0,0,1,2.52,7.73a5.82,5.82,0,0,1-.34-2V3.58A3.37,3.37,0,0,1,5.63.31H16.49a3.37,3.37,0,0,1,3.45,3.27V5.76a6.51,6.51,0,0,1-6.68,6.3Zm-7.63-11a2.62,2.62,0,0,0-2.7,2.52V5.76a4.94,4.94,0,0,0,.3,1.72A5.17,5.17,0,0,0,4.39,9.39a6,6,0,0,0,4.47,1.92h4.4a5.76,5.76,0,0,0,5.93-5.55V3.58a2.62,2.62,0,0,0-2.7-2.52Z" fill="#364556"/></g></svg>