<svg xmlns="http://www.w3.org/2000/svg" width="24.997" height="24.997" viewBox="0 0 24.997 24.997"><g transform="translate(-31 -207)"><circle cx="12.14" cy="12.14" r="12.14" transform="translate(31.357 207.357)" fill="#fff"/><path d="M17.54,20.47,13.9,14.4l.63-.37,3.64,6.07Z" transform="translate(30.497 206.497)" fill="#364556"/><path d="M25.14,13a8.447,8.447,0,0,1-.06,1.24L21,11l1.94-5a12.1,12.1,0,0,1,2.2,7Z" transform="translate(30.497 206.497)" fill="#364556"/><path d="M17.51,19.7l5.28.46a12.16,12.16,0,0,1-7.48,4.76Z" transform="translate(30.497 206.497)" fill="#364556"/><path d="M17.86,11.85,16,17.56H10L8.15,11.85,13,8.33Z" transform="translate(30.497 206.497)" fill="#364556"/><path d="M17.66,1.8,13,5.18,8.34,1.8a12,12,0,0,1,9.32,0Z" transform="translate(30.497 206.497)" fill="#364556"/><path d="M9,19.7,11.22,25a12.05,12.05,0,0,1-8-4.8Z" transform="translate(30.497 206.497)" fill="#364556"/><path d="M3.38,5.61,5.45,11,1,14.59A11.79,11.79,0,0,1,.86,13,12,12,0,0,1,3.38,5.61Z" transform="translate(30.497 206.497)" fill="#364556"/><g transform="translate(30.497 206.497)" opacity="0.3"><path d="M25.14,13A12.13,12.13,0,0,1,3,19.93,12.12,12.12,0,0,0,22.1,10a12.05,12.05,0,0,0-2.17-7,12.13,12.13,0,0,1,5.21,10Z"/></g><rect width="0.73" height="4.86" transform="translate(43.136 210.997)" fill="#364556"/><rect width="0.73" height="6.54" transform="matrix(0.372, -0.928, 0.928, 0.372, 33.038, 216.809)" fill="#364556"/><rect width="5.17" height="0.73" transform="translate(47.615 218.554) rotate(-20.58)" fill="#364556"/><path d="M9.09,21.03l-.68-.28,2.43-6.06.68.27Z" transform="translate(30.497 206.497)" fill="#364556"/><path d="M13,25.5a11.75,11.75,0,0,1-1.84-.14A12.36,12.36,0,0,1,3,20.41,12.26,12.26,0,0,1,.61,14.63,12.5,12.5,0,1,1,25.5,13a8.792,8.792,0,0,1-.06,1.27,12.53,12.53,0,0,1-10.06,11A12.32,12.32,0,0,1,13,25.5ZM13,1.22a11.55,11.55,0,0,0-4.52.91A11.79,11.79,0,0,0,1.23,13a11.27,11.27,0,0,0,.1,1.54,11.79,11.79,0,0,0,9.94,10.1A11.731,11.731,0,0,0,24.77,13a11.63,11.63,0,0,0-2.13-6.75h0a11.74,11.74,0,0,0-5.12-4.12A11.55,11.55,0,0,0,13,1.22Z" transform="translate(30.497 206.497)" fill="#364557"/></g></svg>