<svg xmlns="http://www.w3.org/2000/svg" width="25.75" height="25.852" viewBox="0 0 25.75 25.852"><g transform="translate(-601.625 -166.584)"><g transform="translate(601.5 166.5)"><circle cx="12.5" cy="12.5" r="12.5" transform="translate(0.5 0.5)" fill="#efca33"/><path d="M25.5,13a8.792,8.792,0,0,1-.06,1.27l-4.16-3.36,2-5.07A12.43,12.43,0,0,1,25.5,13Z" fill="#4662c6" stroke="#364556" stroke-miterlimit="10" stroke-width="0.75"/><path d="M17.65,19.9l5.44.47a12.51,12.51,0,0,1-7.71,4.9Z" fill="#4662c6" stroke="#364556" stroke-miterlimit="10" stroke-width="0.75"/><path d="M18,11.81,16.09,17.7H9.91L8,11.81l5-3.62Z" fill="#4662c6" stroke="#364556" stroke-miterlimit="10" stroke-width="0.75"/><path d="M17.8,1.46,13,5,8.2,1.46a12.48,12.48,0,0,1,9.6,0Z" fill="#4662c6" stroke="#364556" stroke-miterlimit="10" stroke-width="0.75"/><path d="M8.85,19.9l2.31,5.46A12.43,12.43,0,0,1,3,20.41Z" fill="#4662c6" stroke="#364556" stroke-miterlimit="10" stroke-width="0.75"/><path d="M3.09,5.39l2.14,5.52L.61,14.64A12.66,12.66,0,0,1,.5,13,12.38,12.38,0,0,1,3.09,5.39Z" fill="#4662c6" stroke="#364556" stroke-miterlimit="10" stroke-width="0.75"/><g opacity="0.3"><path d="M25.5,13A12.5,12.5,0,0,1,2.74,20.14a12.5,12.5,0,0,0,17.4-17.4A12.51,12.51,0,0,1,25.5,13Z"/></g><path d="M23.24,5.84A12.43,12.43,0,0,1,25.5,13a8.792,8.792,0,0,1-.06,1.27A12.49,12.49,0,0,1,3,20.41,12.19,12.19,0,0,1,.61,14.64,12.66,12.66,0,0,1,.5,13,12.5,12.5,0,0,1,23.239,5.839Z" fill="none" stroke="#364556" stroke-miterlimit="10" stroke-width="0.75"/></g></g></svg>