<svg xmlns="http://www.w3.org/2000/svg" width="25.005" height="25.004" viewBox="0 0 25.005 25.004"><g transform="translate(-0.498 -0.497)"><path d="M19.74,4.37,21.37,1.6a1.51,1.51,0,0,1,2-.54,1.44,1.44,0,0,1,.75,1.26,1.39,1.39,0,0,1-.2.73L22.27,5.9,19.91,4.47Z" fill="#edba70"/><path d="M16.94,9.1l2.8-4.73.17.1L22.27,5.9l-2.81,4.77-.25-.15Z" fill="#f2334f"/><path d="M13,15.8l3.94-6.7,2.27,1.42.25.15-4.75,8.06Z" fill="#edba70"/><path d="M13,21.64,11.49,24.2a1.91,1.91,0,0,1-1.65.94H4.67a4.28,4.28,0,0,1-2.32-.65C.5,23.32.6,21.69,1.46,20.86a2,2,0,0,1,1.41-.58h7.49l.93-1.55.91,1.55Z" fill="#edba70"/><path d="M6.45,10.52,9,9l4,6.85,1.71,2.93.93,1.55h7.49a2,2,0,0,1,1.41.58c.86.83,1,2.46-.89,3.63a4.28,4.28,0,0,1-2.32.65H16.16a1.91,1.91,0,0,1-1.65-.94L13,21.64l-.8-1.36-.91-1.55Z" fill="#edba70"/><path d="M6.35,4.53,8.96,8.95,6.45,10.52,3.82,6.05Z" fill="#4662c6"/><path d="M1.85,2.32A1.44,1.44,0,0,1,2.6,1.06a1.51,1.51,0,0,1,2,.54L6.35,4.53,3.82,6.05l-1.77-3a1.39,1.39,0,0,1-.2-.73Z" fill="#edba70"/><path d="M9.84,25.5H4.67a4.66,4.66,0,0,1-2.52-.7A3.23,3.23,0,0,1,.51,22.48a2.26,2.26,0,0,1,.7-1.88,2.35,2.35,0,0,1,1.66-.68h7.29L11,18.54l.63.37-1,1.73H2.87a1.64,1.64,0,0,0-1.15.48,1.54,1.54,0,0,0-.48,1.29,2.44,2.44,0,0,0,1.31,1.78,3.92,3.92,0,0,0,2.12.58H9.84A1.56,1.56,0,0,0,11.18,24l1.51-2.55.62.36-1.5,2.57A2.31,2.31,0,0,1,9.84,25.5Z" fill="#364556"/><path d="M15,18.91l-.63-.37L23.63,2.87a1,1,0,0,0,.15-.55,1.08,1.08,0,0,0-.55-.94,1.14,1.14,0,0,0-1.55.4L13.31,16l-.62-.37L21.06,1.41A1.86,1.86,0,0,1,23.58.74a1.81,1.81,0,0,1,.68,2.5Z" fill="#364556"/><path d="M21.33,25.5H16.16a2.31,2.31,0,0,1-2-1.11L1.74,3.24A1.81,1.81,0,0,1,2.42.74a1.87,1.87,0,0,1,2.52.67l10.9,18.51h7.29a2.36,2.36,0,0,1,1.67.69,2.25,2.25,0,0,1,.69,1.87,3.23,3.23,0,0,1-1.64,2.32A4.66,4.66,0,0,1,21.33,25.5ZM3.34,1.23a1.21,1.21,0,0,0-.57.15,1.08,1.08,0,0,0-.55.94,1,1,0,0,0,.15.55L14.82,24a1.57,1.57,0,0,0,1.34.75h5.17a3.92,3.92,0,0,0,2.12-.58,2.44,2.44,0,0,0,1.31-1.78,1.53,1.53,0,0,0-.47-1.28,1.65,1.65,0,0,0-1.16-.49h-7.7L4.31,1.78a1.13,1.13,0,0,0-.97-.55Z" fill="#364556"/><rect width="2.96" height="0.73" transform="translate(3.627 5.748) rotate(-31.04)" fill="#364556"/><rect width="2.96" height="0.73" transform="translate(6.25 10.219) rotate(-32.12)" fill="#364556"/><path d="M22.26,6.31l-.17-.1L19.72,4.78l.37-.62,2.53,1.52Z" fill="#364556"/><rect width="0.73" height="2.97" transform="translate(16.5 9.257) rotate(-57.99)" fill="#364556"/></g></svg>