<svg xmlns="http://www.w3.org/2000/svg" width="25" height="25" viewBox="0 0 25 25"><g transform="translate(-817 -30)"><g transform="translate(817 29)"><path d="M4,25.62A3.63,3.63,0,0,1,.38,22v-.2A20.47,20.47,0,0,1,20.83,1.38H21A3.63,3.63,0,0,1,24.62,5v.2a20.29,20.29,0,0,1-6,14.46,20.29,20.29,0,0,1-14.46,6Z" fill="#fff"/><path d="M20.83,1.75H21A3.27,3.27,0,0,1,24.25,5v.19a20,20,0,0,1-5.88,14.2,20,20,0,0,1-14.2,5.88H4A3.27,3.27,0,0,1,.75,22v-.19A20.11,20.11,0,0,1,20.83,1.75h0m0-.75h0A20.83,20.83,0,0,0,0,21.83V22a4,4,0,0,0,4,4h.2A20.82,20.82,0,0,0,25,5.17V5a4,4,0,0,0-4-4Z" fill="#364556"/><path d="M25,5v.2A20.83,20.83,0,0,1,4.16,26H4A4,4,0,0,1,.11,22.89,3.56,3.56,0,0,0,1,23h.19A20.83,20.83,0,0,0,22,2.17V2a3.56,3.56,0,0,0-.11-.86A4,4,0,0,1,25,5Z" opacity="0.1"/><path d="M0,22v-.2A20.83,20.83,0,0,1,20.84,1H21a4,4,0,0,1,3.86,3.11A3.56,3.56,0,0,0,24,4h-.19A20.83,20.83,0,0,0,3,24.83V25a3.56,3.56,0,0,0,.11.86A4,4,0,0,1,0,22Z" fill="#fff" opacity="0.2"/><path d="M20.83,1.75H21A3.27,3.27,0,0,1,24.25,5v.19a20,20,0,0,1-5.88,14.2,20,20,0,0,1-14.2,5.88H4A3.27,3.27,0,0,1,.75,22v-.19A20.11,20.11,0,0,1,20.83,1.75h0m0-.75h0A20.83,20.83,0,0,0,0,21.83V22a4,4,0,0,0,4,4h.2A20.82,20.82,0,0,0,25,5.17V5a4,4,0,0,0-4-4Z" fill="#364556"/><path d="M19.43,1.11A17.67,17.67,0,0,1,17,8a16.65,16.65,0,0,0,5-6S21.85,1.22,19.43,1.11Z" fill="#364556"/><path d="M15.74,2.19a17.39,17.39,0,0,1-.84,6.25A19.94,19.94,0,0,0,18,2S17.81,1.86,15.74,2.19Z" fill="#4662c6"/><path d="M4,26a15.44,15.44,0,0,1,3.49-6.12,16.65,16.65,0,0,0-6.06,4.94S1.64,25.43,4,26Z" fill="#364556"/><path d="M8,25a10.66,10.66,0,0,1,1.63-5.14,19.79,19.79,0,0,0-4.27,5.72S6,26,8,25Z" fill="#4662c6"/><path d="M20.83,1.75H21A3.27,3.27,0,0,1,24.25,5v.19a20,20,0,0,1-5.88,14.2,20,20,0,0,1-14.2,5.88H4A3.27,3.27,0,0,1,.75,22v-.19A20.11,20.11,0,0,1,20.83,1.75h0m0-.75h0A20.83,20.83,0,0,0,0,21.83V22a4,4,0,0,0,4,4h.2A20.82,20.82,0,0,0,25,5.17V5a4,4,0,0,0-4-4Z" fill="#364556"/></g></g></svg>