<svg xmlns="http://www.w3.org/2000/svg" width="25" height="25" viewBox="0 0 25 25"><g transform="translate(-0.46 -0.5)"><path d="M23.72,7.35A9.24,9.24,0,0,0,7.9,13.88,9.073,9.073,0,0,0,8.611,17.4a3.84,3.84,0,0,1-.271-.292c-.12-.12-.25-.26-.36-.39l-.29-.39-.31-.44A9.26,9.26,0,1,1,23.72,7.35Z" transform="translate(-0.05)" fill="#fff" opacity="0.2"/><rect width="9.09" height="4.93" transform="matrix(0.707, -0.707, 0.707, 0.707, 1.035, 21.41)" fill="#edba70"/><path d="M7.46,15.5l3,3-5.9,5.9-3-2.99,5.9-5.91m0-1.06-7,7,4,4,7-7Z" fill="#364556"/><path d="M10.68,19.25l-1,1a10,10,0,0,1-4-4l1-1a10,10,0,0,0,4,4Z" transform="translate(-0.013)" opacity="0.1"/><path d="M10.68,19.25l-1,1a10,10,0,0,1-4-4l1-1a10,10,0,0,0,4,4Z" transform="translate(-0.013)" opacity="0.1"/><path d="M7.46,15.5l3,3-5.9,5.9-3-2.99,5.9-5.91m0-1.06-7,7,4,4,7-7Z" fill="#364556"/><path d="M6.51,14.27a8.55,8.55,0,0,0,.77,1.47c.09.15.2.3.3.44s.19.27.29.39.24.28.37.41a6.35,6.35,0,0,0,.58.58c.13.12.26.25.4.36a3.47,3.47,0,0,0,.38.29l.44.31a9.26,9.26,0,0,0,5,1.48h.58a4.91,4.91,0,0,1,4.86-4.34,4.85,4.85,0,0,1,2.09.47,9.24,9.24,0,0,0-1-11.91,9.61,9.61,0,0,1,.62,1.59,11.19,11.19,0,0,1,.27,4.71,13.78,13.78,0,0,1-.92,3.61,4.84,4.84,0,0,0-2.08-.47A4.91,4.91,0,0,0,14.63,18h-.58c-1.84,0-4.56-1.55-6-2.48l-.44-.31c-.13-.09-.26-.18-.39-.29l-.4-.36Z" transform="translate(-0.05)" opacity="0.1"/><ellipse cx="9.99" cy="10" rx="9.99" ry="10" transform="translate(5.47 0.5)" fill="#b9ca47"/><path d="M25.5,10.5a10,10,0,0,1-18,6,10,10,0,0,0,14-14,10,10,0,0,1,4,8Z" transform="translate(-0.05)" opacity="0.1"/><path d="M5.54,10.52a10,10,0,0,1,18-6,10,10,0,0,0-14,14,10,10,0,0,1-4-8Z" transform="translate(-0.05)" fill="#fff" opacity="0.2"/><path d="M15.51,1.25A9.25,9.25,0,1,1,6.27,10.5a9.25,9.25,0,0,1,9.24-9.25m0-.75a10,10,0,1,0,10,10,10,10,0,0,0-10-10Z" transform="translate(-0.05)" fill="#364556"/><path d="M16.87,20.65a4.14,4.14,0,0,1,7.49-2.44A4.142,4.142,0,0,0,18.58,24,4.11,4.11,0,0,1,16.87,20.65Z" transform="translate(-0.05)" fill="#fff" opacity="0.2"/><circle cx="4.12" cy="4.12" r="4.12" transform="translate(16.83 16.88)" fill="#fff"/><path d="M21,17.25A3.75,3.75,0,1,1,17.26,21,3.75,3.75,0,0,1,21,17.25m0-.75a4.49,4.49,0,1,0,3.185,1.315A4.5,4.5,0,0,0,21,16.5Z" transform="translate(-0.05)" fill="#364556"/><path d="M25.36,20.85a4.14,4.14,0,0,1-7.49,2.44,4.142,4.142,0,0,0,5.78-5.79,4.11,4.11,0,0,1,1.71,3.35Z" transform="translate(-0.05)" opacity="0.1"/><path d="M21,17.25A3.75,3.75,0,1,1,17.26,21,3.75,3.75,0,0,1,21,17.25m0-.75a4.49,4.49,0,1,0,3.185,1.315A4.5,4.5,0,0,0,21,16.5Z" transform="translate(-0.05)" fill="#364556"/></g></svg>