<svg xmlns="http://www.w3.org/2000/svg" width="25" height="25" viewBox="0 0 25 25"><g transform="translate(-0.5 -0.5)"><circle cx="12.05" cy="12.05" r="12.05" transform="translate(0.95 0.95)" fill="none"/><circle cx="12.05" cy="12.05" r="12.05" transform="translate(0.95 0.95)" fill="#b9ca47"/><path d="M21.12,21.92a12.48,12.48,0,0,1,0-17.84l.63.64a11.59,11.59,0,0,0,0,16.56Z" fill="#364556"/><path d="M4.88,21.92l-.63-.64A11.56,11.56,0,0,0,7.73,13,11.56,11.56,0,0,0,4.25,4.72l.63-.64A12.39,12.39,0,0,1,8.63,13a12.39,12.39,0,0,1-3.75,8.92Z" fill="#364556"/><g opacity="0.2"><path d="M.7,12.75A12,12,0,0,1,22.64,5.87,12,12,0,0,0,5.87,22.64,12.06,12.06,0,0,1,.7,12.75Z" fill="#fff"/></g><g opacity="0.2"><path d="M25.05,13A12,12,0,0,1,3.11,19.88,12,12,0,0,0,19.88,3.11,12,12,0,0,1,25.05,13Z"/></g><path d="M13,25.5A12.5,12.5,0,1,1,25.5,13,12.5,12.5,0,0,1,13,25.5ZM13,1.4A11.6,11.6,0,1,0,24.6,13,11.6,11.6,0,0,0,13,1.4Z" fill="#364556"/></g></svg>