<svg xmlns="http://www.w3.org/2000/svg" width="25" height="25" viewBox="0 0 25 25"><g transform="translate(-0.5 -0.5)"><path d="M25.05,12.81V13A12.06,12.06,0,0,1,13,25.05h-.73A11.82,11.82,0,0,1,7,23.43H7a10.93,10.93,0,0,1-1.5-1A12,12,0,0,1,7,2.57H7a6.23,6.23,0,0,1,.72-.39A12,12,0,0,1,24.13,8.41,11.84,11.84,0,0,1,25,12.59a1.55,1.55,0,0,1,.05.22Z" fill="none"/><path d="M7,2.72V2.58H7Zm.16-.14H7V2.42Z"/><path d="M5.34,13.73l-.15-.1.04-.17.1.1.01-.13v.14l.13-.05-.13.05.1.11-.1-.11h0Z"/><path d="M25.05,12.81V13A12.06,12.06,0,0,1,13,25.05h-.73A12,12,0,0,0,18.64,11.2H19a12,12,0,0,1,5.84,1.51Z" fill="#efca33"/><path d="M25,12.59a1.55,1.55,0,0,1,0,.22l-.19-.11A12,12,0,0,0,19,11.19h-.38a12.09,12.09,0,0,0-5.45,1.5l-.2-.12a11.92,11.92,0,0,1-4.13-4A11.35,11.35,0,0,1,11.37,7a11.8,11.8,0,0,1,5.24-1.21,12,12,0,0,1,7.52,2.64A11.84,11.84,0,0,1,25,12.59Z" fill="#efca33"/><path d="M13,1A12,12,0,0,1,24.13,8.41a12,12,0,0,0-7.52-2.64A11.8,11.8,0,0,0,11.37,7,11.35,11.35,0,0,0,8.86,8.6,11.68,11.68,0,0,1,7,2.58H7a6.23,6.23,0,0,1,.72-.39A12,12,0,0,1,13,1Z" fill="#4662c6"/><path d="M18.64,11.2A12,12,0,0,1,12.27,25,11.82,11.82,0,0,1,7,23.43H7a11.84,11.84,0,0,0,4.72-5A11.92,11.92,0,0,0,13,13v-.18h0l.19-.11a12.09,12.09,0,0,1,5.45-1.51Z" fill="#4662c6"/><path d="M13.19,12.7l-.19.11a1.62,1.62,0,0,0,0-.23Z" fill="#efca33"/><path d="M13,12.82V13a11.92,11.92,0,0,1-1.3,5.43A11.87,11.87,0,0,1,8.7,17,12,12,0,0,1,3.36,7a7.851,7.851,0,0,1,.07-1.29A11.91,11.91,0,0,1,7,2.57H7a11.68,11.68,0,0,0,1.87,6,11.92,11.92,0,0,0,4.13,4,1.62,1.62,0,0,1,0,.23Z" fill="#efca33"/><path d="M8.72,17a11.87,11.87,0,0,0,3,1.43,11.84,11.84,0,0,1-4.72,5,10.93,10.93,0,0,1-1.5-1A12,12,0,0,1,3.43,5.69c0,.42-.07.85-.07,1.29A12,12,0,0,0,8.72,17Z" fill="#4662c6"/><path d="M7,23.42a10.93,10.93,0,0,1-1.5-1A12,12,0,0,1,7,2.57H7a6.23,6.23,0,0,1,.72-.39A12,12,0,0,1,24.13,8.41,11.84,11.84,0,0,1,25,12.59a1.55,1.55,0,0,1,0,.22V13A12.06,12.06,0,0,1,13,25.05h-.73A11.82,11.82,0,0,1,7,23.43" fill="none" stroke="#364556" stroke-miterlimit="10" stroke-width="0.75"/><path d="M13,12.81a1.62,1.62,0,0,0,0-.23" fill="none" stroke="#000" stroke-miterlimit="10" stroke-width="0.75"/><path d="M7,23.43H7a11.84,11.84,0,0,0,4.72-5A11.92,11.92,0,0,0,13,13v-.18" fill="none" stroke="#364556" stroke-miterlimit="10" stroke-width="0.75"/><path d="M12.27,25a12,12,0,0,0,6.37-13.8" fill="none" stroke="#364556" stroke-miterlimit="10" stroke-width="0.75"/><path d="M13,12.82h0l.19-.11a12.09,12.09,0,0,1,5.45-1.5H19a12,12,0,0,1,5.84,1.51l.19.11" fill="none" stroke="#364556" stroke-miterlimit="10" stroke-width="0.75"/><path d="M8.86,8.6A11.35,11.35,0,0,1,11.37,7a11.8,11.8,0,0,1,5.24-1.21,12,12,0,0,1,7.52,2.64" fill="none" stroke="#364556" stroke-miterlimit="10" stroke-width="0.75"/><path d="M13.19,12.7l-.2-.12a11.92,11.92,0,0,1-4.13-4A11.68,11.68,0,0,1,7,2.58H7" fill="none" stroke="#364556" stroke-miterlimit="10" stroke-width="0.75"/><path d="M3.43,5.69c0,.42-.07.85-.07,1.29A12,12,0,0,0,8.72,17a11.87,11.87,0,0,0,3,1.43" fill="none" stroke="#364556" stroke-miterlimit="10" stroke-width="0.75"/><g opacity="0.2"><path d="M.7,12.75A12,12,0,0,1,22.64,5.87,12,12,0,0,0,5.87,22.64,12.06,12.06,0,0,1,.7,12.75Z" fill="#fff"/></g><g opacity="0.3"><path d="M25.05,13A12,12,0,0,1,3.11,19.88,12,12,0,0,0,19.88,3.11,12,12,0,0,1,25.05,13Z"/></g><path d="M13,25.5A12.5,12.5,0,1,1,25.5,13,12.5,12.5,0,0,1,13,25.5ZM13,1.4A11.6,11.6,0,1,0,24.6,13,11.6,11.6,0,0,0,13,1.4Z" fill="#364556"/></g></svg>