<svg xmlns="http://www.w3.org/2000/svg" width="23.571" height="22.185" viewBox="0 0 23.571 22.185">
  <g id="Group_2783" data-name="Group 2783" transform="translate(53 -288.379)">
    <path id="Untitled-1-04" d="M17.628,22.183a2.394,2.394,0,0,1-1.093-.266L11.745,19.45,7.032,21.917a2.369,2.369,0,0,1-2.46-.177A2.243,2.243,0,0,1,3.629,19.5l.943-5.217L.707,10.648A2.246,2.246,0,0,1,.113,8.305,2.307,2.307,0,0,1,2,6.752l5.354-.763L9.69,1.278a2.351,2.351,0,0,1,4.185,0h0L16.27,6.034l5.3.719a2.307,2.307,0,0,1,1.885,1.553,2.246,2.246,0,0,1-.594,2.343l-3.874,3.7.943,5.164a2.235,2.235,0,0,1-.943,2.227,2.334,2.334,0,0,1-1.357.444ZM2.545,9.068l3.771,3.549a2.255,2.255,0,0,1,.669,2.023L6.1,19.707l4.647-2.4a2.4,2.4,0,0,1,2.168,0l4.647,2.4-.886-5.067a2.28,2.28,0,0,1,.669-2.023l3.771-3.549-5.194-.745A2.322,2.322,0,0,1,14.14,7.1L11.783,2.44,9.426,7.1A2.317,2.317,0,0,1,7.7,8.323ZM12.792,1.774l-1.075.515h0Z" transform="translate(-52.998 288.38)" fill="#f3d61d"/>
    <path id="Path_630" data-name="Path 630" d="M-3.135,2.645,2.176.261,6.593-4.38,10.73-.075l5.982,2.72L12.4,7.7l.565,5.759L6.984,11.387,1.1,13.1.331,7.25Z" transform="translate(-48 295)" fill="#f3d61d"/>
  </g>
</svg>
