  <svg xmlns="http://www.w3.org/2000/svg" width="12" height="7" viewBox="0 0 12.001 7">
    <path
      d="M6.468 6.81l5.34-5.3a.649.649 0 000-.921l-.392-.39a.66.66 0 00-.929 0L6 4.648 1.513.19a.663.663 0 00-.929 0L.192.581a.649.649 0 000 .921L5.537 6.81a.666.666 0 00.931 0z"
      fill="#69b979"></path>
    <path
      d="M5.538 6.81L.193 1.5a.648.648 0 010-.922L.585.19a.662.662 0 01.928 0L6 4.648 10.487.2a.661.661 0 01.93 0l.392.39a.65.65 0 010 .922L6.468 6.81a.665.665 0 01-.931 0z"
      fill="#69b979"></path>
  </svg>