<svg xmlns="http://www.w3.org/2000/svg" width="12" height="12" viewBox="0 0 12 12"><path d="M21.572,127.578l4.481-4.482a.713.713,0,0,0-1.008-1.008l-4.481,4.482-4.482-4.482a.713.713,0,0,0-1.008,1.008l4.482,4.482-4.482,4.482a.712.712,0,1,0,1.008,1.007l4.482-4.482,4.481,4.482a.713.713,0,1,0,1.008-1.008Z" transform="translate(-14.563 -121.578)" fill="#90a3b9"/><path d="M25.524,133.5a.957.957,0,0,1-.679-.282l-4.36-4.361-4.36,4.361a.986.986,0,0,1-1.359,0,.96.96,0,0,1,0-1.359l4.36-4.36-4.36-4.36a.96.96,0,0,1,.679-1.64h0a.954.954,0,0,1,.68.282l4.36,4.36,4.36-4.361a.956.956,0,0,1,.679-.281h0a.96.96,0,0,1,.678,1.64l-4.36,4.36,4.36,4.36a.961.961,0,0,1-.68,1.64Zm-5.039-5.321,4.7,4.7a.49.49,0,0,0,.679,0,.481.481,0,0,0,0-.68l-4.7-4.7,4.7-4.7a.48.48,0,0,0-.339-.82h0a.476.476,0,0,0-.339.141l-4.7,4.7-4.7-4.7a.491.491,0,0,0-.679,0,.479.479,0,0,0,0,.68l4.7,4.7-4.7,4.7a.478.478,0,0,0,0,.679.492.492,0,0,0,.679,0Z" transform="translate(-14.485 -121.5)" fill="#90a3b9"/></svg>