<svg xmlns="http://www.w3.org/2000/svg" width="27.02" height="27.03" viewBox="0 0 27.02 27.03">
  <g id="sss-01" transform="translate(0.09 0.03)">
    <path id="Path_11447" data-name="Path 11447" d="M24.24,10.92h-.92a10.13,10.13,0,0,0-1-2.42L23,7.82A2.69,2.69,0,1,0,19.24,4l-.65.65a10.31,10.31,0,0,0-2.39-1v-1a2.68,2.68,0,0,0-5.36,0V3.6a9.89,9.89,0,0,0-2.41,1l-.69-.69a2.69,2.69,0,0,0-3.8,3.8l.65.65a10.31,10.31,0,0,0-1,2.39h-1a2.68,2.68,0,1,0,0,5.36h.92a10.13,10.13,0,0,0,1,2.42l-.69.68A2.69,2.69,0,0,0,3,21.08,2.66,2.66,0,0,0,3.81,23,2.69,2.69,0,0,0,7.6,23l.65-.65a10.31,10.31,0,0,0,2.39,1v1A2.68,2.68,0,0,0,16,24.32V23.4a10,10,0,0,0,2.42-1l.68.69a2.69,2.69,0,0,0,3.8-3.8l-.65-.65a10.31,10.31,0,0,0,1-2.39h1a2.665,2.665,0,1,0-.01-5.33Zm.54,3.23a.77.77,0,0,1-.54.22H22.52a1,1,0,0,0-.94.77,8.31,8.31,0,0,1-1.33,3.12,1,1,0,0,0,.1,1.22l1.2,1.19a.78.78,0,0,1,0,1.1.8.8,0,0,1-1.1,0l-1.22-1.22a1,1,0,0,0-1.2-.12,8.36,8.36,0,0,1-2.87,1.21h-.11a1,1,0,0,0-1,.95v1.74a.78.78,0,0,1-.78.77.79.79,0,0,1-.77-.77V22.59a1,1,0,0,0-.77-.93,8.38,8.38,0,0,1-3.12-1.33.9.9,0,0,0-.54-.18,1,1,0,0,0-.68.28L6.2,21.63a.774.774,0,1,1-1.09-1.1l1.21-1.22a.93.93,0,0,0,.12-1.2A8.22,8.22,0,0,1,5.23,15a1,1,0,0,0-.94-.79H2.6a.77.77,0,1,1,0-1.54H4.33a1,1,0,0,0,.93-.77A8.48,8.48,0,0,1,6.59,8.74a1,1,0,0,0-.1-1.22L5.3,6.33A.77.77,0,0,1,5.84,5a.8.8,0,0,1,.55.22L7.61,6.45a1,1,0,0,0,1.2.12A8.22,8.22,0,0,1,12,5.31a1,1,0,0,0,.79-.94V2.68a.77.77,0,1,1,1.54,0V4.41a1,1,0,0,0,.77.93,8.25,8.25,0,0,1,3.12,1.33,1,1,0,0,0,1.22-.1l1.19-1.2a.78.78,0,0,1,1.1,0,.8.8,0,0,1,0,1.1L20.47,7.69a1,1,0,0,0-.12,1.2A8.22,8.22,0,0,1,21.61,12a1,1,0,0,0,.94.79h1.69a.77.77,0,0,1,.54,1.32Z" fill="#f7f7f7"/>
    <path id="Path_11448" data-name="Path 11448" d="M13.42,6.93A6.57,6.57,0,1,0,20,13.5a6.57,6.57,0,0,0-6.58-6.57Zm0,11.23a4.66,4.66,0,1,1,4.66-4.66A4.66,4.66,0,0,1,13.42,18.16Z" fill="#f7f7f7"/>
  </g>
</svg>
