<svg xmlns="http://www.w3.org/2000/svg" width="30.433" height="26" viewBox="0 0 30.433 26"><g transform="translate(0.1 -3.985)"><g transform="translate(-0.1 4)"><path d="M11.929,21.285H.9V5H29.333V21.285H18.405" transform="translate(0.1 -4)" fill="none"/><path d="M29.322,22.285H18.4a1.016,1.016,0,0,1,0-2.032h9.908V6.032H1.922V20.253h10.01a1.016,1.016,0,0,1,0,2.032H.911A.957.957,0,0,1-.1,21.269V5.016A.957.957,0,0,1,.911,4H29.322a.957.957,0,0,1,1.011,1.016V21.269A.957.957,0,0,1,29.322,22.285Z" transform="translate(0.1 -4)" fill="#5f6c79"/></g><g transform="translate(14.167 20.385)"><path d="M15,28.9h0a1,1,0,0,1-1-1V21.1a.945.945,0,0,1,1-1h0a1,1,0,0,1,1,1v6.8A1.166,1.166,0,0,1,15,28.9Z" transform="translate(-14 -20.1)" fill="#5f6c79"/></g><g transform="translate(11.611 25.03)"><path d="M15,29.7h0a.909.909,0,0,1-.8-.4l-2.5-2.9a.992.992,0,0,1,1.5-1.3l1.7,2,1.7-2a.992.992,0,1,1,1.5,1.3l-2.5,2.9A.622.622,0,0,1,15,29.7Z" transform="translate(-11.445 -24.745)" fill="#5f6c79"/></g><g transform="translate(24.033 3.985)"><path d="M28.6,10.3a4.908,4.908,0,0,1-4.9-4.9V4.9a1,1,0,1,1,2,.2v.3a2.9,2.9,0,0,0,2.9,2.9h.3a1.088,1.088,0,0,1,1.1.9,1.088,1.088,0,0,1-.9,1.1Z" transform="translate(-23.7 -3.985)" fill="#5f6c79"/></g><g transform="translate(24.033 16.274)"><path d="M29,22H24.7a.945.945,0,0,1-1-1,4.908,4.908,0,0,1,4.9-4.9h.5a.987.987,0,0,1,.9,1V21A.945.945,0,0,1,29,22Zm-3.2-2H28V18.1A3.486,3.486,0,0,0,25.8,20Z" transform="translate(-23.7 -16.1)" fill="#5f6c79"/></g><g transform="translate(-0.1 4)"><path d="M1.2,10.1H.7a.974.974,0,0,1-.8-1V5a.945.945,0,0,1,1-1H5.1a1.063,1.063,0,0,1,1,.9v.3A4.908,4.908,0,0,1,1.2,10.1ZM1.9,6V8.1A2.97,2.97,0,0,0,4,6Z" transform="translate(0.1 -4)" fill="#5f6c79"/></g><g transform="translate(-0.1 16.274)"><path d="M5.1,22H.9a.945.945,0,0,1-1-1V17.1a.974.974,0,0,1,.8-1h.5A4.908,4.908,0,0,1,6.1,21,.945.945,0,0,1,5.1,22ZM1.9,20H4a2.768,2.768,0,0,0-2.1-1.8V20Z" transform="translate(0.1 -16.1)" fill="#5f6c79"/></g><path d="M11.5,11.9,15,16.1l4.4-6.9" transform="translate(0.174 0.079)" fill="none" stroke="#5f6c79" stroke-linecap="round" stroke-linejoin="round" stroke-miterlimit="10" stroke-width="2"/></g></svg>