<svg xmlns="http://www.w3.org/2000/svg" width="83.228" height="28.952" viewBox="0 0 83.228 28.952"><g transform="translate(-30.015 -10.5)"><g transform="translate(30.015 10.5)"><path d="M.526,31.873A1.749,1.749,0,0,1,0,30.582V12.835a1.751,1.751,0,0,1,.526-1.267A1.752,1.752,0,0,1,1.836,11h4.9a7.394,7.394,0,0,1,5.41,2.246,7.379,7.379,0,0,1,2.234,5.41,7.379,7.379,0,0,1-2.234,5.41,7.4,7.4,0,0,1-5.41,2.27H3.671v4.284a1.755,1.755,0,0,1-.532,1.273,1.743,1.743,0,0,1-1.3.526A1.745,1.745,0,0,1,.526,31.873Zm3.1-9.179h3.06A3.884,3.884,0,0,0,9.528,21.5,3.887,3.887,0,0,0,10.7,18.655a4,4,0,0,0-3.972-3.984H3.671Zm25.261-.985a8.133,8.133,0,0,0-1.346,4.5v4.369a1.788,1.788,0,0,0,.532,1.291,1.836,1.836,0,0,0,2.564,0,1.763,1.763,0,0,0,.514-1.291V18.416Z" transform="translate(0.001 -3.466)" fill="#fff"/><path d="M63.178,32.631A1.585,1.585,0,0,1,61.55,31.09c0-.024,0-.05,0-.074V13.159a1.585,1.585,0,0,1,1.56-1.61h5.869a5.728,5.728,0,0,1,5.758,5.7c0,.029,0,.058,0,.086a5.65,5.65,0,0,1-1.744,4.094,6.12,6.12,0,0,1,2.558,5.006,6,6,0,0,1-1.836,4.394,6.457,6.457,0,0,1-4.547,1.805Zm5.7-12.423a2.547,2.547,0,0,0,1.836-.906,2.872,2.872,0,0,0,.74-1.866A2.674,2.674,0,0,0,68.8,14.842H64.83v5.367Zm.2,9.149a3.22,3.22,0,0,0,2.258-.955,3.132,3.132,0,0,0,.936-2.185,2.969,2.969,0,0,0-.936-2.179,3.436,3.436,0,0,0-2.276-.869H64.83v6.168Zm11.107,3.274A1.592,1.592,0,0,1,78.666,31V13.2A1.64,1.64,0,0,1,80.3,11.55h8.806a1.585,1.585,0,0,1,1.15.477,1.542,1.542,0,0,1,.465,1.169,1.591,1.591,0,0,1-1.554,1.628h-7.2v5.691h5.171a1.511,1.511,0,0,1,1.169.447,1.616,1.616,0,0,1-1.169,2.748H81.964v5.648h7.16a1.6,1.6,0,0,1,1.616,1.59c0,.017,0,.033,0,.05a1.536,1.536,0,0,1-.465,1.157,1.5,1.5,0,0,1-1.15.459ZM97.875,31V14.805H93.494a1.628,1.628,0,0,1,0-3.256h11.988a1.615,1.615,0,0,1,1.628,1.6c0,.015,0,.029,0,.043a1.475,1.475,0,0,1-.459,1.15,1.642,1.642,0,0,1-1.169.459h-4.394V31a1.6,1.6,0,0,1-1.572,1.634h-.074a1.53,1.53,0,0,1-1.57-1.489C97.871,31.094,97.872,31.046,97.875,31Z" transform="translate(-23.884 -3.68)" fill="#69b979"/><path d="M43.473,8.345a1.794,1.794,0,0,0-.789-1.034,1.659,1.659,0,0,0-.612-.233A1.475,1.475,0,0,0,40.9,7.39a1.9,1.9,0,0,0-.422.5l-3.458,5.116a3.427,3.427,0,0,1-6.358-.673l-.881-2.613a1.836,1.836,0,0,0-.942-1.071,1.671,1.671,0,0,0-.685-.208,2.048,2.048,0,0,0-1.426.422,1.731,1.731,0,0,0-.71,1.224V29.053a1.8,1.8,0,0,0,1.762,1.836h.074a1.738,1.738,0,0,0,1.273-.526,1.786,1.786,0,0,0,.551-1.31v-7.4a37.411,37.411,0,0,0,2.38,4.284,2.622,2.622,0,0,0,1,.967,1.59,1.59,0,0,0,.7.153,1.837,1.837,0,0,0,.753-.165,1.756,1.756,0,0,0,1.1-1.518,2.3,2.3,0,0,0-.073-.875,6.985,6.985,0,0,1-.306-1.34,3.536,3.536,0,0,1,.844-2.491L43.344,9.648a1.654,1.654,0,0,0,.2-.679A1.837,1.837,0,0,0,43.473,8.345Z" transform="translate(-10.096 -1.937)" fill="#fff"/><path d="M40.852,3.531A3.531,3.531,0,1,1,37.321,0a3.531,3.531,0,0,1,3.531,3.531Z" transform="translate(-13.112)" fill="#fff"/></g></g></svg>