<svg xmlns="http://www.w3.org/2000/svg" xmlns:xlink="http://www.w3.org/1999/xlink" width="41" height="41.778" viewBox="0 0 41 41.778"><defs><linearGradient id="a" x1="0.495" y1="1.005" x2="0.505" y2="-0.005" gradientUnits="objectBoundingBox"><stop offset="0" stop-color="#f6b731"/><stop offset="0.98" stop-color="#f04f26"/></linearGradient></defs><g transform="translate(0.08 0.832)"><rect width="41" height="41" transform="translate(-0.08 -0.055)" fill="url(#a)"/><g transform="translate(0.038 -0.832)" opacity="0.35"><path d="M40.882.09V12.354a8.176,8.176,0,0,1-8.176,8.176H8.176A8.176,8.176,0,0,1,0,12.354V.09Z" transform="translate(0 -0.09)" fill="#fff"/></g><path d="M18.012,3.76A14.276,14.276,0,1,0,28.117,7.935,14.292,14.292,0,0,0,18.012,3.76ZM7.906,10.432a12.33,12.33,0,0,1,2.518,6.8H5.388a12.624,12.624,0,0,1,2.518-6.8ZM5.388,18.87h5.037a12.428,12.428,0,0,1-2.5,6.786A12.526,12.526,0,0,1,5.388,18.87ZM17.26,30.66A12.461,12.461,0,0,1,9.084,26.9a14.243,14.243,0,0,0,2.993-8.029H17.26Zm0-13.425H12.076A14.325,14.325,0,0,0,9.084,9.156,12.559,12.559,0,0,1,17.26,5.412Zm13.442,0H25.583v-.523a12.314,12.314,0,0,1,2.044-6.884,12.412,12.412,0,0,1,3.009,7.408ZM18.9,5.412a12.51,12.51,0,0,1,7.62,3.271A14.031,14.031,0,0,0,24,16.76v.523H18.9Zm0,25.248V18.87h5.282a14.047,14.047,0,0,0,3.516,7.408,12.575,12.575,0,0,1-8.8,4.382Zm9.812-5.74a12.51,12.51,0,0,1-2.943-6.05h4.906a12.346,12.346,0,0,1-1.962,6.05Z" transform="translate(2.402 2.409)" fill="#fff"/></g></svg>