<svg xmlns="http://www.w3.org/2000/svg" xmlns:xlink="http://www.w3.org/1999/xlink" width="41.071" height="41.071" viewBox="0 0 41.071 41.071"><defs><linearGradient id="a" x1="0.502" y1="-0.032" x2="0.498" y2="1.059" gradientUnits="objectBoundingBox"><stop offset="0" stop-color="#8d381d"/><stop offset="0.98" stop-color="#fcc310"/></linearGradient></defs><rect width="41.054" height="41.054" transform="translate(0.016 0.016)" fill="url(#a)"/><g opacity="0.35"><path d="M41.054,0V12.316a8.211,8.211,0,0,1-8.211,8.211H8.211A8.211,8.211,0,0,1,0,12.316V0Z" fill="#fff"/></g><path d="M32,8.946V8.782A4.926,4.926,0,0,0,27.072,3.97H26.99a22.99,22.99,0,0,0-22.169,16.8h0l-.328,1.642v.131l-.115.575h0A24.534,24.534,0,0,0,4,27.01v.213a4.926,4.926,0,0,0,4.762,4.713h.164a24.091,24.091,0,0,0,3.941-.361h0l.608-.1h.181L15.15,31.1h0A22.99,22.99,0,0,0,32,8.946ZM5.806,27.01a22.022,22.022,0,0,1,.131-2.348l5.353,5.37a21.906,21.906,0,0,1-2.365.131H8.762A3.005,3.005,0,0,1,5.806,27.19ZM6.348,22.3A21.25,21.25,0,0,1,22.064,6.417l7.472,7.455A21.036,21.036,0,0,1,13.689,29.6ZM29.963,11.524,24.412,5.99a21.841,21.841,0,0,1,2.578-.164H27.2A2.989,2.989,0,0,1,30.16,8.782v.164a21.56,21.56,0,0,1-.2,2.578ZM31.473,8.782ZM26.99,4.5Z" transform="translate(2.569 2.549)" fill="#fff"/><path d="M20.959,12l-.87-.87.87-.87a.936.936,0,0,0,0-1.314.969.969,0,0,0-1.314,0l-.87.87-.87-.87a.969.969,0,0,0-1.314,0,.936.936,0,0,0,0,1.314l.87.87-2.5,2.513-.838-.87a.936.936,0,0,0-1.314,1.314l.87.87-2.545,2.447-.87-.87a.969.969,0,0,0-1.314,0,.936.936,0,0,0,0,1.314l.87.87-.87.87a.936.936,0,0,0,0,1.314.92.92,0,0,0,.657.279.887.887,0,0,0,.657-.279l.87-.87.87.87a.92.92,0,0,0,.657.279.887.887,0,0,0,.657-.279.936.936,0,0,0,0-1.314l-.838-.821L15,16.274l.87.87a.952.952,0,0,0,.657.263.969.969,0,0,0,.657-.263.936.936,0,0,0,0-1.314l-.87-.87,2.463-2.48.87.87a.92.92,0,0,0,.657.279.887.887,0,0,0,.657-.279.936.936,0,0,0,0-1.347Z" transform="translate(5.578 5.583)" fill="#fff"/></svg>