<svg xmlns="http://www.w3.org/2000/svg" xmlns:xlink="http://www.w3.org/1999/xlink" width="41.001" height="41.181" viewBox="0 0 41.001 41.181"><defs><linearGradient id="a" x1="0.504" y1="1.061" x2="0.497" y2="-0.028" gradientUnits="objectBoundingBox"><stop offset="0" stop-color="#38c0f0"/><stop offset="0.98" stop-color="#462e86"/></linearGradient></defs><g transform="translate(0.01 0.06)"><rect width="40.984" height="40.984" transform="translate(-0.01 0.137)" fill="url(#a)"/><g transform="translate(0.006 -0.06)" opacity="0.3"><path d="M40.984-.06v12.3a8.2,8.2,0,0,1-8.2,8.2H8.2a8.2,8.2,0,0,1-8.2-8.2V-.06Z" transform="translate(0 0.06)" fill="#fff"/></g><path d="M12.9,29.945a.771.771,0,0,1-.7-.443L3.554,10.928a.771.771,0,0,1,0-.607.836.836,0,0,1,.393-.377L15.62,5.026a.754.754,0,0,1,1,.377l8.656,18.574a.787.787,0,0,1,0,.607.8.8,0,0,1-.41.426L13.177,29.928A.639.639,0,0,1,12.9,29.945ZM5.276,10.994l8,17.181L23.538,23.83l-8-17.164Z" transform="translate(2.239 3.209)" fill="#fff"/><path d="M13,30.324a1.033,1.033,0,0,1-.934-.59L3.421,11.16a1.049,1.049,0,0,1,0-.8.967.967,0,0,1,.557-.574L15.651,4.865a1,1,0,0,1,1.328.508l8.656,18.574a1.049,1.049,0,0,1,0,.8,1.18,1.18,0,0,1-.557.574L13.389,30.242A1.131,1.131,0,0,1,13,30.324ZM16.028,5.258h-.213L4.142,10.176a.541.541,0,0,0-.279.3.475.475,0,0,0,0,.393L12.618,29.5a.492.492,0,0,0,.656.262l11.672-4.918a.492.492,0,0,0,.279-.3.541.541,0,0,0,0-.393L16.487,5.553a.525.525,0,0,0-.459-.3ZM13.241,28.636,5.044,10.98,15.782,6.439l8.2,17.64ZM5.716,11.258,13.5,27.963l9.836-4.148L15.5,7.094Z" transform="translate(2.143 3.092)" fill="#fff"/><path d="M12.176,16.318h-.262l-3.18-1.164a.7.7,0,0,1-.426-.41.672.672,0,0,1,0-.59l1.18-3.1a.771.771,0,0,1,.984-.426l3.18,1.164a.721.721,0,0,1,.443.41.852.852,0,0,1,0,.607l-1.23,3.033A.771.771,0,0,1,12.176,16.318Zm-2.164-2.377,1.738.639.639-1.639-1.639-.623Z" transform="translate(5.274 6.803)" fill="#fff"/><path d="M12.229,16.48h-.3L8.754,15.3a.885.885,0,0,1-.525-.475.836.836,0,0,1,0-.689l1.213-3.049a.885.885,0,0,1,1.148-.492l3.18,1.164a.852.852,0,0,1,.508.475.951.951,0,0,1,0,.7l-1.23,3.033A.869.869,0,0,1,12.229,16.48Zm-1.951-5.738a.623.623,0,0,0-.59.393l-1.23,3.033a.607.607,0,0,0,0,.508.623.623,0,0,0,.361.344L12,16.185a.672.672,0,0,0,.82-.361l1.213-3.033a.689.689,0,0,0,0-.508.7.7,0,0,0-.377-.344l-3.164-1.164Zm1.639,4.016L9.95,14.037l.738-1.836,1.984.721Zm-1.639-.869,1.492.557.557-1.377-1.492-.541Z" transform="translate(5.22 6.772)" fill="#fff"/><path d="M18.144,29.944a.934.934,0,0,1-.3,0L12.5,27.665a.771.771,0,0,1,.59-1.41l4.672,1.967,8-17.23L15.5,6.665l-2,4.279a.771.771,0,1,1-1.393-.639l2.312-4.918a.771.771,0,0,1,1-.361L27.1,9.944a.738.738,0,0,1,.393,1.033L18.849,29.5A.77.77,0,0,1,18.144,29.944Z" transform="translate(7.682 3.21)" fill="#fff"/><path d="M18.24,30.305a1.131,1.131,0,0,1-.393-.082L12.5,27.961a1.016,1.016,0,0,1-.557-.574.967.967,0,0,1,0-.771.934.934,0,0,1,.557-.557,1.082,1.082,0,0,1,.787,0l4.426,1.885L25.5,11.223,15.667,7.075l-1.836,4.082a.984.984,0,0,1-.59.525.967.967,0,0,1-.771,0,1.033,1.033,0,0,1-.541-.574,1.082,1.082,0,0,1,0-.787L14.257,5.4a1,1,0,0,1,1.328-.508L27.257,9.813a.967.967,0,0,1,.557.574,1.049,1.049,0,0,1,0,.8L19.175,29.715a1.016,1.016,0,0,1-.934.59ZM12.9,26.436a.328.328,0,0,0-.18,0,.51.51,0,0,0-.016.951l5.344,2.328a.525.525,0,0,0,.672-.246l8.639-18.558a.475.475,0,0,0,0-.393.541.541,0,0,0-.279-.3L15.372,5.272a.541.541,0,0,0-.672.262l-2.312,4.918a.475.475,0,0,0,0,.393.508.508,0,0,0,.262.3.541.541,0,0,0,.393,0,.492.492,0,0,0,.279-.262l2.115-4.525,10.738,4.541-8.2,17.656L13.06,26.469A.41.41,0,0,0,12.9,26.436Z" transform="translate(7.586 3.111)" fill="#fff"/><path d="M15.66,16.034a.754.754,0,0,1-.721-.492.787.787,0,0,1,.459-1l1.639-.59L16.4,12.313l-1.852.672a.775.775,0,1,1-.525-1.459l2.541-.918a.787.787,0,0,1,.984.426l1.213,3.033a.787.787,0,0,1,0,.607.721.721,0,0,1-.443.41L15.955,16Z" transform="translate(8.642 6.792)" fill="#fff"/><path d="M15.711,16.211a.9.9,0,0,1-.3-1.738l1.508-.557-.557-1.377-1.721.639a.9.9,0,0,1-.689,0,.885.885,0,0,1-.459-.508.852.852,0,0,1,0-.689.9.9,0,0,1,.492-.459l2.541-.918a.885.885,0,0,1,1.148.492l1.23,3.033a.951.951,0,0,1,0,.7.852.852,0,0,1-.508.475l-2.393.9A.951.951,0,0,1,15.711,16.211Zm.8-3.984.754,1.836-1.771.656a.623.623,0,0,0-.377.82.639.639,0,0,0,.82.377l2.377-.869A.771.771,0,0,0,18.7,14.7a.689.689,0,0,0,0-.508l-1.23-3.033a.639.639,0,0,0-.8-.361l-2.541.934a.59.59,0,0,0-.361.328.574.574,0,0,0,0,.492.557.557,0,0,0,.328.361.639.639,0,0,0,.492,0Z" transform="translate(8.59 6.778)" fill="#fff"/></g></svg>