<svg xmlns="http://www.w3.org/2000/svg" xmlns:xlink="http://www.w3.org/1999/xlink" width="41" height="41" viewBox="0 0 41 41"><defs><linearGradient id="a" x1="0.493" y1="1.063" x2="0.507" y2="-0.04" gradientUnits="objectBoundingBox"><stop offset="0" stop-color="#d6e489"/><stop offset="0.98" stop-color="#054e3d"/></linearGradient></defs><g transform="translate(0 0.045)"><rect width="41" height="41" transform="translate(0 -0.045)" fill="url(#a)"/><g transform="translate(0 0.129)" opacity="0.3"><path d="M40.882.07V12.334a8.176,8.176,0,0,1-8.176,8.176H8.176A8.176,8.176,0,0,1,0,12.334V.07Z" transform="translate(0 -0.07)" fill="#fff"/></g><path d="M8.847,26.209a.769.769,0,0,1-.572-.229L3.908,21.614a.834.834,0,0,1,0-1.145l6.737-6.737a.809.809,0,0,1,1.145,1.145L5.642,21.042l3.271,3.271L15.045,18.2a.809.809,0,1,1,1.145,1.145l-6.7,6.7a.752.752,0,0,1-.638.164Z" transform="translate(2.338 8.587)" fill="#fff"/><path d="M19.706,16.485a3.271,3.271,0,1,1-3.271,3.271,3.271,3.271,0,0,1,3.271-3.271m0-1.635a4.906,4.906,0,1,0,4.906,4.906A4.906,4.906,0,0,0,19.706,14.85Z" transform="translate(9.402 9.448)" fill="#fff"/><path d="M19.706,16.485a3.271,3.271,0,1,1-3.271,3.271,3.271,3.271,0,0,1,3.271-3.271m0-1.635a4.906,4.906,0,1,0,4.906,4.906A4.906,4.906,0,0,0,19.706,14.85Z" transform="translate(9.402 9.448)" fill="#fff"/><path d="M18.691,27.072A11.676,11.676,0,1,1,27.538,23l-.54.621-1.226-1.063.523-.621a10.041,10.041,0,1,0-7.6,3.5h1.848l.147,1.635h-2Z" transform="translate(4.448 2.377)" fill="#fff"/></g></svg>