<svg xmlns="http://www.w3.org/2000/svg" xmlns:xlink="http://www.w3.org/1999/xlink" width="41.095" height="41.021" viewBox="0 0 41.095 41.021"><defs><linearGradient id="a" x1="0.497" y1="0.01" x2="0.504" y2="1.031" gradientUnits="objectBoundingBox"><stop offset="0.02" stop-color="#336f36"/><stop offset="0.18" stop-color="#377036"/><stop offset="0.32" stop-color="#427434"/><stop offset="0.46" stop-color="#547b32"/><stop offset="0.59" stop-color="#6f852f"/><stop offset="0.73" stop-color="#91912b"/><stop offset="0.86" stop-color="#b9a026"/><stop offset="0.98" stop-color="#e8b121"/></linearGradient></defs><g transform="translate(0 -0.06)"><rect width="40.969" height="40.969" transform="translate(0.126 0.112)" fill="url(#a)"/><g transform="translate(0 0.06)" opacity="0.3"><path d="M41.073.06V12.382A8.215,8.215,0,0,1,32.858,20.6H8.215A8.215,8.215,0,0,1,0,12.382V.06Z" transform="translate(0 -0.06)" fill="#fff"/></g><path d="M18.1,32.287A14.178,14.178,0,1,1,32.277,18.108,14.178,14.178,0,0,1,18.1,32.287Zm0-26.812A12.634,12.634,0,1,0,30.732,18.108,12.634,12.634,0,0,0,18.1,5.474Z" transform="translate(2.52 2.488)" fill="#fff"/><path d="M16.89,27.989A11.09,11.09,0,1,1,27.979,16.9,11.09,11.09,0,0,1,16.89,27.989Zm0-20.619a9.529,9.529,0,1,0,6.749,2.785A9.545,9.545,0,0,0,16.89,7.371Z" transform="translate(3.729 3.697)" fill="#fff"/><path d="M14.559,15.3a.706.706,0,0,1-.542-.23l-4.37-4.321a.772.772,0,0,1,0-1.084.739.739,0,0,1,1.084,0l4.387,4.37a.772.772,0,0,1,0,1.084A.723.723,0,0,1,14.559,15.3Z" transform="translate(6.059 6.022)" fill="#fff"/><path d="M10.19,18a.756.756,0,0,1-.542-.214.789.789,0,0,1,0-1.1l4.37-4.37a.773.773,0,1,1,1.1,1.084l-4.387,4.387A.756.756,0,0,1,10.19,18Z" transform="translate(6.059 7.734)" fill="#fff"/><path d="M17.236,18a.821.821,0,0,1-.559-.214L12.307,13.4a.773.773,0,1,1,1.1-1.084l4.37,4.37a.789.789,0,0,1,0,1.1.756.756,0,0,1-.542.214Z" transform="translate(7.769 7.734)" fill="#fff"/><path d="M12.849,15.318a.706.706,0,0,1-.542-.23.772.772,0,0,1,0-1.084l4.37-4.37a.756.756,0,0,1,1.1,0,.772.772,0,0,1,0,1.084l-4.37,4.37a.723.723,0,0,1-.559.23Z" transform="translate(7.769 6.002)" fill="#fff"/><path d="M15.784,12.564a1.807,1.807,0,1,1,1.791-1.807,1.807,1.807,0,0,1-1.791,1.807Zm0-2.07a.263.263,0,0,0-.263.263c0,.279.509.279.509,0a.263.263,0,0,0-.246-.263Z" transform="translate(8.975 5.716)" fill="#fff"/><path d="M10.707,12.564a1.791,1.791,0,1,1,1.283-.524A1.807,1.807,0,0,1,10.707,12.564Zm0-2.07a.263.263,0,0,0-.246.263c0,.279.509.279.509,0a.263.263,0,0,0-.263-.263Z" transform="translate(5.722 5.716)" fill="#fff"/><path d="M10.707,17.584a1.791,1.791,0,1,1,1.283-.524A1.807,1.807,0,0,1,10.707,17.584Zm0-2.07a.263.263,0,0,0-.246.263c0,.279.509.279.509,0A.263.263,0,0,0,10.707,15.514Z" transform="translate(5.722 8.943)" fill="#fff"/><path d="M15.784,17.584a1.807,1.807,0,1,1,1.791-1.807,1.807,1.807,0,0,1-1.791,1.807Zm0-2.07a.263.263,0,0,0-.263.263c0,.279.509.279.509,0A.263.263,0,0,0,15.784,15.514Z" transform="translate(8.975 8.943)" fill="#fff"/></g></svg>