<svg xmlns="http://www.w3.org/2000/svg" xmlns:xlink="http://www.w3.org/1999/xlink" width="41" height="41" viewBox="0 0 41 41"><defs><linearGradient id="a" x1="0.512" y1="1.016" x2="0.487" y2="-0.031" gradientUnits="objectBoundingBox"><stop offset="0.02" stop-color="#add2ef"/><stop offset="0.98" stop-color="#4169b2"/></linearGradient></defs><g transform="translate(0.402 0.235)"><rect width="41" height="41" transform="translate(-0.402 -0.235)" fill="url(#a)"/><g transform="translate(-0.402 -0.201)" opacity="0.4"><path d="M41,0V12.3a8.2,8.2,0,0,1-8.2,8.2H8.2A8.2,8.2,0,0,1,0,12.3V0Z" fill="#fff"/></g><path d="M14.149,23.79H8.542a5.08,5.08,0,0,1-2.732-.751A3.5,3.5,0,0,1,4.005,20.6a2.46,2.46,0,0,1,.751-2.045,2.588,2.588,0,0,1,1.805-.735h7.987l.879-1.486.687.4L15,18.6h-8.4a1.741,1.741,0,0,0-1.246.527,1.6,1.6,0,0,0-.527,1.39,2.62,2.62,0,0,0,1.422,1.933,4.249,4.249,0,0,0,2.3.639h5.607a1.757,1.757,0,0,0,1.47-.831l1.6-2.78.671.415-1.6,2.78a2.508,2.508,0,0,1-2.141,1.118Z" transform="translate(2.514 10.144)" fill="#fff"/><path d="M14.292,24.435H8.685A5.368,5.368,0,0,1,5.746,23.6a3.882,3.882,0,0,1-1.981-2.812,2.939,2.939,0,0,1,.879-2.38A2.971,2.971,0,0,1,6.736,17.6H14.4L15.33,16l1.39.815-1.39,2.38H6.736a1.39,1.39,0,0,0-1.374,1.47,2.284,2.284,0,0,0,1.246,1.6,3.85,3.85,0,0,0,2.077.559h5.607A1.31,1.31,0,0,0,15.41,22.2l1.837-3.115,1.374.815-1.837,3.195A2.955,2.955,0,0,1,14.292,24.435Z" transform="translate(2.371 9.947)" fill="#fff"/><path d="M14.83,24.023l-.687-.4L24.159,6.611a1.1,1.1,0,0,0,.16-.591A1.166,1.166,0,0,0,23.728,5a1.23,1.23,0,0,0-1.677.431l-9.09,15.416-.671-.4L21.412,5.029a2.029,2.029,0,0,1,2.748-.719A1.965,1.965,0,0,1,25.166,6.02a1.917,1.917,0,0,1-.272.99Z" transform="translate(7.473 2.803)" fill="#fff"/><path d="M15.231,24.729l-1.39-.815L24.017,6.55a.639.639,0,0,0,.112-.383.8.8,0,0,0-.4-.671.815.815,0,0,0-1.118.288l-9.3,15.767-1.374-.815L21.221,4.968a2.428,2.428,0,0,1,3.291-.847,2.332,2.332,0,0,1,1.214,2.061,2.364,2.364,0,0,1-.319,1.2Z" transform="translate(7.263 2.656)" fill="#fff"/><path d="M26.214,31.122H20.607a2.508,2.508,0,0,1-2.141-1.2L4.952,7a1.917,1.917,0,0,1-.272-.99A1.949,1.949,0,0,1,5.7,4.3a2.029,2.029,0,0,1,2.684.719L20.207,25.1h7.907a2.54,2.54,0,0,1,1.805.751,2.412,2.412,0,0,1,.831,2.077,3.5,3.5,0,0,1-1.773,2.524,5.08,5.08,0,0,1-2.764.671ZM6.693,4.827a1.2,1.2,0,0,0-.607.16A1.15,1.15,0,0,0,5.479,6.01a1.1,1.1,0,0,0,.16.591L19.153,29.524a1.725,1.725,0,0,0,1.454.815h5.607a4.249,4.249,0,0,0,2.3-.639,2.62,2.62,0,0,0,1.422-1.933,1.693,1.693,0,0,0-.511-1.39,1.805,1.805,0,0,0-1.262-.527H19.808L7.747,5.419A1.2,1.2,0,0,0,6.693,4.827Z" transform="translate(2.926 2.812)" fill="#fff"/><path d="M26.35,31.721H20.743a2.955,2.955,0,0,1-2.492-1.406l-13.515-23a2.4,2.4,0,0,1,.895-3.195A2.444,2.444,0,0,1,8.922,5L20.631,24.884H28.3a2.987,2.987,0,0,1,2.109.863,2.923,2.923,0,0,1,.863,2.332,3.882,3.882,0,0,1-1.981,2.812A5.368,5.368,0,0,1,26.35,31.721ZM6.829,5.378a.943.943,0,0,0-.415.112.8.8,0,0,0-.4.671.639.639,0,0,0,.112.383L19.7,29.5a1.294,1.294,0,0,0,1.1.607h5.607a3.85,3.85,0,0,0,2.077-.559,2.284,2.284,0,0,0,1.246-1.6,1.342,1.342,0,0,0-.4-1.07,1.374,1.374,0,0,0-.974-.4H19.7l-.112-.208L7.532,5.714a.815.815,0,0,0-.7-.335Z" transform="translate(2.79 2.661)" fill="#fff"/><rect width="3.211" height="0.783" transform="translate(9.936 12.536) rotate(-31.04)" fill="#fff"/><rect width="4.026" height="1.597" transform="translate(9.364 12.385) rotate(-31.01)" fill="#fff"/><rect width="3.211" height="0.783" transform="translate(12.79 17.382) rotate(-32.12)" fill="#fff"/><rect width="4.032" height="1.6" transform="matrix(0.849, -0.529, 0.529, 0.849, 12.228, 17.319)" fill="#fff"/><path d="M19.824,8.862l-.192-.112L17.06,7.2l.415-.671,2.748,1.645Z" transform="translate(10.323 4.289)" fill="#fff"/><path d="M20.177,9.631l-.527-.319L16.71,7.554l.831-1.374,3.435,2.061Z" transform="translate(10.113 4.08)" fill="#fff"/><rect width="0.783" height="3.227" transform="translate(23.907 16.346) rotate(-57.99)" fill="#fff"/><rect width="1.597" height="4.026" transform="translate(23.334 16.478) rotate(-57.99)" fill="#fff"/></g></svg>