<svg xmlns="http://www.w3.org/2000/svg" xmlns:xlink="http://www.w3.org/1999/xlink" width="40.901" height="40.983" viewBox="0 0 40.901 40.983"><defs><linearGradient id="a" x1="0.49" y1="0.008" x2="0.511" y2="1.064" gradientUnits="objectBoundingBox"><stop offset="0" stop-color="#965189"/><stop offset="0.99" stop-color="#ffd738"/></linearGradient></defs><g transform="translate(0 -0.06)"><rect width="40.901" height="40.901" transform="translate(0 0.142)" fill="url(#a)"/><g transform="translate(0 0.06)" opacity="0.3"><path d="M40.9.06V12.33a8.18,8.18,0,0,1-8.18,8.18H8.18A8.18,8.18,0,0,1,0,12.33V.06Z" transform="translate(0 -0.06)" fill="#fff"/></g><path d="M8.45,8.32h3.714v6.021h0c.278-.54.605-1.047.9-1.636l2.83-4.385h4.63l-4.548,6.021,4.63,8.049H16.254L13.293,16.7l-1.129,1.44V22.39H8.45Z" transform="translate(5.374 5.254)" fill="#fff"/><path d="M17.57,31.877A13.874,13.874,0,1,1,31.427,18,13.874,13.874,0,0,1,17.57,31.877Zm0-25.947A12.09,12.09,0,1,0,29.644,18,12.09,12.09,0,0,0,17.57,5.93Z" transform="translate(2.341 2.589)" fill="#fff"/></g></svg>