<svg xmlns="http://www.w3.org/2000/svg" xmlns:xlink="http://www.w3.org/1999/xlink" width="41.108" height="41.058" viewBox="0 0 41.108 41.058"><defs><linearGradient id="a" x1="0.497" y1="1.008" x2="0.504" y2="-0.003" gradientUnits="objectBoundingBox"><stop offset="0" stop-color="#5bc9e4"/><stop offset="0.98" stop-color="#63c081"/></linearGradient></defs><rect width="41.059" height="41.059" transform="translate(0.049)" fill="url(#a)"/><g opacity="0.3"><path d="M41.059,0V12.318a8.212,8.212,0,0,1-8.212,8.212H8.212A8.212,8.212,0,0,1,0,12.318V0Z" fill="#fff"/></g><path d="M22.734,32.427a1.856,1.856,0,0,1-1.3-.509l-.591-.575a2.447,2.447,0,0,0-1.2-.641l-1.462-.279A7.522,7.522,0,0,1,14.9,28.879L9.644,24.494a68.98,68.98,0,0,1-4.927-6.175,2.661,2.661,0,0,1,0-3.186l.493-.69a2.037,2.037,0,0,1,1.051-.772,2.743,2.743,0,0,1,.526-2.792l.838-.854a1.922,1.922,0,0,1,.788-.509,2.6,2.6,0,0,1,.673-2.25l.723-.739A1.889,1.889,0,0,1,11.648,6L12.683,4.77A2.858,2.858,0,0,1,15.245,3.8l2,.345a4.7,4.7,0,0,1,2.529,1.182c1-.509,2.578.378,3.071.854l3.285,3.186a10.1,10.1,0,0,1,2.858,5.108l1.166,5.518a1.856,1.856,0,0,0,.493.87l.706.673a1.905,1.905,0,0,1,0,2.677l-7.391,7.653A1.807,1.807,0,0,1,22.734,32.427ZM6.77,14.837a.723.723,0,0,0-.608.312l-.493.69a1.429,1.429,0,0,0,0,1.642c2.644,3.449,4.451,5.682,4.861,6.044l5.239,4.352a6.077,6.077,0,0,0,2.661,1.281l1.462.3a3.777,3.777,0,0,1,1.839.969l.591.575a.575.575,0,0,0,.838,0l7.374-7.653a.608.608,0,0,0,0-.87l-.69-.69h0a3.038,3.038,0,0,1-.854-1.511l-1.215-5.551a8.77,8.77,0,0,0-2.546-4.5l-3.285-3.17A2.693,2.693,0,0,0,20.3,6.4a1.018,1.018,0,0,1-1.314-.1,3.662,3.662,0,0,0-1.971-.953l-2-.279a1.527,1.527,0,0,0-1.412.526L12.338,7.085a.772.772,0,0,1-.936.2.591.591,0,0,0-.673.148l-.723.755a1.248,1.248,0,0,0-.246,1.429.8.8,0,0,1,0,.723.755.755,0,0,1-.69.378.739.739,0,0,0-.542.23l-.821.87a1.429,1.429,0,0,0-.263,1.642l.181.361A.739.739,0,0,1,6.869,14.9ZM7.016,13.573ZM9.037,9.4Z" transform="translate(2.69 2.424)" fill="#fff"/><path d="M22.812,32.728a2.053,2.053,0,0,1-1.445-.591l-.608-.558a2.266,2.266,0,0,0-1.084-.591l-1.462-.3a7.6,7.6,0,0,1-3.285-1.642c-1.511-1.248-4.648-3.843-5.255-4.369a72.148,72.148,0,0,1-5.042-6.208,2.94,2.94,0,0,1,0-3.465l.493-.69a2.316,2.316,0,0,1,.985-.788A2.923,2.923,0,0,1,6.7,10.787l.838-.87a2.1,2.1,0,0,1,.706-.493A2.776,2.776,0,0,1,9,7.174l.723-.755a2.135,2.135,0,0,1,1.922-.558L12.6,4.743a3.055,3.055,0,0,1,2.759-1.051l2,.279a5.026,5.026,0,0,1,2.529,1.15,3.679,3.679,0,0,1,3.285.969l3.285,3.17a10.248,10.248,0,0,1,2.923,5.223L30.6,20.049a1.445,1.445,0,0,0,.427.755l.69.673a2.135,2.135,0,0,1,.657,1.495,2.1,2.1,0,0,1-.591,1.495l-7.473,7.67a2.053,2.053,0,0,1-1.495.591ZM11.315,6.237a1.642,1.642,0,0,0-1.2.509L9.328,7.5A2.283,2.283,0,0,0,8.72,9.539v.2H8.54a1.839,1.839,0,0,0-.723.443L7,11.049a2.513,2.513,0,0,0-.558,2.529v.23h-.23a1.79,1.79,0,0,0-.936.69l-.493.69a2.447,2.447,0,0,0,0,2.923,75.268,75.268,0,0,0,4.927,6.142l5.255,4.369a7.243,7.243,0,0,0,3.12,1.495l1.462.312a2.6,2.6,0,0,1,1.33.69l.591.575a1.642,1.642,0,0,0,2.3,0l7.391-7.653a1.642,1.642,0,0,0,0-2.349l-.69-.673a1.921,1.921,0,0,1-.558-.985l-1.215-5.568A9.723,9.723,0,0,0,25.9,9.539L22.615,6.352c-.427-.394-1.938-1.281-2.825-.821h-.131l-.115-.1a4.434,4.434,0,0,0-2.414-1.117L15.29,4.1a2.6,2.6,0,0,0-2.349.887L11.808,6.336h-.131a1.889,1.889,0,0,0-.427-.1Zm11.5,25.226a.854.854,0,0,1-.575-.23l-.591-.575a3.449,3.449,0,0,0-1.642-.9l-1.462-.3a6.569,6.569,0,0,1-2.759-1.33l-5.255-4.369C10.1,23.4,8.326,21.2,5.6,17.75a1.642,1.642,0,0,1,0-1.954l.476-.706A1,1,0,0,1,7,14.679a.509.509,0,0,0,.509-.214.575.575,0,0,0,0-.542l-.181-.361a1.642,1.642,0,0,1,.3-1.889l.821-.887a1,1,0,0,1,.706-.312A.542.542,0,0,0,9.624,9.7a1.511,1.511,0,0,1,.3-1.642l.723-.739a.821.821,0,0,1,.985-.181.558.558,0,0,0,.673-.131l1.265-1.495a1.807,1.807,0,0,1,1.642-.608l2,.3a3.728,3.728,0,0,1,2.069,1,.821.821,0,0,0,1.051,0c.378-.2,1.478.263,1.905.673l3.285,3.186a9.115,9.115,0,0,1,2.562,4.582L29.3,20.2a2.792,2.792,0,0,0,.772,1.412l.706.673a.854.854,0,0,1,0,1.2L23.4,31.135a.87.87,0,0,1-.575.246ZM6.848,15.122a.509.509,0,0,0-.427.23l-.493.69a1.215,1.215,0,0,0,0,1.429,75.053,75.053,0,0,0,4.8,5.945l5.239,4.369a6,6,0,0,0,2.562,1.232l1.462.3a4.024,4.024,0,0,1,2.037,1.018l.591.575a.361.361,0,0,0,.526,0l7.374-7.653a.394.394,0,0,0,0-.558L29.808,22a3.153,3.153,0,0,1-.9-1.642l-1.215-5.568a8.655,8.655,0,0,0-2.5-4.336l-3.285-3.17a2.726,2.726,0,0,0-1.38-.608,1.248,1.248,0,0,1-1.642-.148,3.285,3.285,0,0,0-1.79-.887l-2.02-.3a1.363,1.363,0,0,0-1.2.46L12.613,7.3a1.018,1.018,0,0,1-1.182.2.411.411,0,0,0-.476,0l-.706.739a1.051,1.051,0,0,0-.214,1.182,1,1,0,0,1-.887,1.412A.542.542,0,0,0,8.77,11l-.838.854a1.248,1.248,0,0,0-.214,1.38l.2.361a1,1,0,0,1,0,1,.969.969,0,0,1-.92.411Zm.246-1.248v-.443h0ZM9.115,9.7Z" transform="translate(2.612 2.352)" fill="#fff"/><path d="M15.507,20.118a.641.641,0,0,1-.624-.558,8.212,8.212,0,0,1,.755-4.812,7.949,7.949,0,0,1,1.478-2.069,2.1,2.1,0,0,1-.246-.411,1.642,1.642,0,0,1-.115-.246,5.354,5.354,0,0,1-1.642,1.117,5.568,5.568,0,0,1-2.316.542,2.578,2.578,0,0,1-2.71-1.4,2.644,2.644,0,0,1,.2-2.5.443.443,0,0,1,.115-.131l2.973-2.611,2.546-2.234a.641.641,0,0,1,.838.953L14.21,8,11.3,10.543a1.445,1.445,0,0,0-.082,1.2,1.33,1.33,0,0,0,1.429.673h0a4.73,4.73,0,0,0,1.856-.427,4.664,4.664,0,0,0,2.151-1.872.657.657,0,0,1,.788-.263.641.641,0,0,1,.378.723,1.774,1.774,0,0,0,.131,1.15,1.642,1.642,0,0,0,.427.526.64.64,0,0,1,.016.969,6.569,6.569,0,0,0-1.642,2.135,6.947,6.947,0,0,0-.641,4.073.624.624,0,0,1-.542.706Z" transform="translate(6.336 3.023)" fill="#fff"/><path d="M15.607,20.442a.87.87,0,0,1-.854-.739,8.589,8.589,0,0,1,.772-4.927,8.343,8.343,0,0,1,1.4-1.987l-.164-.279a6.044,6.044,0,0,1-1.462.953,6.323,6.323,0,0,1-2.4.558,2.743,2.743,0,0,1-2.71-4.254l.164-.181L15.87,4.758a.854.854,0,0,1,1.429.69.887.887,0,0,1-.3.591L14.457,8.272l-2.874,2.513a1.166,1.166,0,0,0,0,.969,1.133,1.133,0,0,0,1.2.558H12.9a4.5,4.5,0,0,0,1.692-.443,4.648,4.648,0,0,0,2.02-1.823.859.859,0,0,1,1.577.624,1.429,1.429,0,0,0,.115,1,1.215,1.215,0,0,0,.361.46.838.838,0,0,1,.312.641.854.854,0,0,1-.3.657,6.569,6.569,0,0,0-2.217,6.011.87.87,0,0,1-.739.969Zm1.33-8.7.131.312a.69.69,0,0,0,.1.23c0,.131.148.246.23.378l.115.148-.131.148a7.506,7.506,0,0,0-1.445,2,7.982,7.982,0,0,0-.739,4.7.443.443,0,0,0,.476.345.411.411,0,0,0,.345-.46,7.111,7.111,0,0,1,.641-4.2,6.98,6.98,0,0,1,1.741-2.2.443.443,0,0,0,.131-.312.378.378,0,0,0-.131-.312,1.839,1.839,0,0,1-.509-.641,1.971,1.971,0,0,1-.148-1.314.411.411,0,0,0-.755-.3,4.927,4.927,0,0,1-4.155,2.447,1.642,1.642,0,0,1-1.642-.8,1.642,1.642,0,0,1,0-1.412h0l2.973-2.562L16.756,5.71a.411.411,0,0,0,.131-.3.345.345,0,0,0-.131-.3.411.411,0,0,0-.575,0l-5.518,4.927h0a2.431,2.431,0,0,0-.181,2.283,2.365,2.365,0,0,0,2.48,1.265,5.863,5.863,0,0,0,2.151-.542,5.6,5.6,0,0,0,1.642-1.068Z" transform="translate(6.236 2.912)" fill="#fff"/><path d="M12.414,9.708a.608.608,0,0,1-.427-.164L8.7,6.374a.641.641,0,0,1,.87-.92l3.285,3.17a.624.624,0,0,1-.443,1.084Z" transform="translate(5.503 3.43)" fill="#fff"/><path d="M12.525,10.034a.838.838,0,0,1-.591-.181L8.649,6.568a.838.838,0,0,1,0-1.2.854.854,0,0,1,1.215,0l3.285,3.17a.854.854,0,0,1-.608,1.478ZM9.24,5.6a.443.443,0,0,0-.3.131.411.411,0,0,0,0,.575l3.285,3.17a.411.411,0,0,0,.575,0,.394.394,0,0,0,0-.575L9.519,5.731A.394.394,0,0,0,9.24,5.6Z" transform="translate(5.393 3.286)" fill="#fff"/><path d="M10.563,19.825A2.053,2.053,0,0,1,9.3,19.381L5.636,16.54a.657.657,0,0,1-.115-.9.641.641,0,0,1,.87-.1l3.7,2.858a.723.723,0,0,0,1,0,2.316,2.316,0,0,0,.624-1.38.624.624,0,0,0,0-.131L5.734,12.319a.641.641,0,0,1-.246-.493.558.558,0,0,1,.131-.378.624.624,0,0,1,.887-.115L12.5,15.867h0c.887.821,1.314.624,1.642.312a2.119,2.119,0,0,0,.739-1.314,1.412,1.412,0,0,0-.526-.92L8.034,8.328a.641.641,0,1,1,.854-.936l6.339,5.633a1.314,1.314,0,0,0,1.807-.082,1.511,1.511,0,0,0,.394-1.3l-.2-.214a.641.641,0,0,1,0-.9.624.624,0,0,1,.887,0l.246.246h0a2.644,2.644,0,0,1-2.119,3.843v.23a3.17,3.17,0,0,1-1.117,2.25h0a2.069,2.069,0,0,1-2.168.46,3.81,3.81,0,0,1-.887,1.642A2,2,0,0,1,10.563,19.825Z" transform="translate(3.463 4.597)" fill="#fff"/><path d="M10.65,20.065a2.3,2.3,0,0,1-1.412-.493L5.591,16.78a.854.854,0,0,1-.328-.558.887.887,0,0,1,.164-.641.87.87,0,0,1,1.215-.148L10.3,18.291a.526.526,0,0,0,.706,0,2.266,2.266,0,0,0,.575-1.215l-5.9-4.549a.87.87,0,0,1-.345-.673.838.838,0,0,1,.181-.509.772.772,0,0,1,.558-.328.821.821,0,0,1,.641.164l6.126,4.6h0c.772.706,1.068.46,1.3.263.542-.575.657-.936.657-1.15a1.2,1.2,0,0,0-.46-.755L8.006,8.568a.838.838,0,0,1-.279-.641.788.788,0,0,1,.214-.558.854.854,0,0,1,1.215,0L15.495,13a1.084,1.084,0,0,0,1.495,0,1.642,1.642,0,0,0,.378-1.035l-.181-.181a.9.9,0,0,1-.23-.608.854.854,0,0,1,.263-.608.87.87,0,0,1,1.215,0l.246.263v.082a2.776,2.776,0,0,1-.526,3.285,2.907,2.907,0,0,1-1.642.838h0a3.432,3.432,0,0,1-1.166,2.414h0a2.316,2.316,0,0,1-2.168.575,4.139,4.139,0,0,1-.87,1.478A2.217,2.217,0,0,1,10.65,20.065ZM6.117,15.63h0a.443.443,0,0,0-.279.164.394.394,0,0,0,0,.3A.378.378,0,0,0,6,16.369l3.646,2.841a1.807,1.807,0,0,0,2.414-.148,3.777,3.777,0,0,0,.838-1.511v-.246l.246.082a1.839,1.839,0,0,0,1.938-.411,3.022,3.022,0,0,0,1.068-2.119V14.4h.181a2.316,2.316,0,0,0,1.642-.706,2.365,2.365,0,0,0,.493-2.677l-.279-.3a.411.411,0,0,0-.575,0,.493.493,0,0,0-.131.3.427.427,0,0,0,.115.279l.246.263a1.642,1.642,0,0,1-.46,1.642,1.511,1.511,0,0,1-2.1.082L8.86,7.583a.411.411,0,0,0-.575,0,.394.394,0,0,0-.164.3.378.378,0,0,0,.148.312l6.422,5.633a1.544,1.544,0,0,1,.591,1.068,2.217,2.217,0,0,1-.788,1.495c-.427.361-.969.608-1.922-.263l-.148-.115-5.945-4.5a.378.378,0,0,0-.3,0,.361.361,0,0,0-.263.148.394.394,0,0,0-.1.246.427.427,0,0,0,.164.328L11.98,16.78a.46.46,0,0,1,0,.214,2.562,2.562,0,0,1-.69,1.544.985.985,0,0,1-1.314,0L6.363,15.729a.443.443,0,0,0-.246-.082Z" transform="translate(3.376 4.57)" fill="#fff"/><path d="M13.4,7.234a.624.624,0,0,1-.427-.181l-1.035-1a.627.627,0,1,1,.87-.9l1.035.985a.641.641,0,0,1-.443,1.1Z" transform="translate(7.543 3.194)" fill="#fff"/><path d="M13.457,7.5a.887.887,0,0,1-.591-.23l-1.035-1a.854.854,0,0,1,1.2-1.2l1.035.985a.87.87,0,0,1,0,1.215.8.8,0,0,1-.608.23ZM12.422,5.235a.443.443,0,0,0-.3.131.411.411,0,0,0,0,.575l1.035,1a.411.411,0,0,0,.575,0,.378.378,0,0,0,.131-.23.476.476,0,0,0-.115-.3l-1.035-1a.476.476,0,0,0-.3-.181Z" transform="translate(7.483 3.141)" fill="#fff"/></svg>