<svg xmlns="http://www.w3.org/2000/svg" xmlns:xlink="http://www.w3.org/1999/xlink" width="41.536" height="41.519" viewBox="0 0 41.536 41.519"><defs><linearGradient id="a" x1="0.502" y1="-0.002" x2="0.498" y2="1.002" gradientUnits="objectBoundingBox"><stop offset="0" stop-color="#775da7"/><stop offset="0.99" stop-color="#8dc754"/></linearGradient></defs><g transform="translate(0.996 0.994)"><rect width="41" height="41" transform="translate(-0.46 -0.475)" fill="url(#a)"/><g transform="translate(-0.996 -0.994)" opacity="0.3"><path d="M41.536,0V12.461a8.307,8.307,0,0,1-8.307,8.307H8.307A8.307,8.307,0,0,1,0,12.461V0Z" fill="#fff"/></g><path d="M21.669,18.873A56.7,56.7,0,0,0,17.528,10.8,3.808,3.808,0,0,0,15.45,8.909a1.587,1.587,0,0,0-1.222.206,4.141,4.141,0,0,0-.317.27c-.1-.159-.206-.27-.317-.428-1.38-1.634-2.38-2.507-3.284-2.507a1.587,1.587,0,0,0-.587.111,1.4,1.4,0,0,0-.746.635l-.1.254v.317A2.269,2.269,0,0,0,7.295,7.2a1.587,1.587,0,0,0-.7.159.777.777,0,0,0-.254.159h0a1.682,1.682,0,0,0-.762,1.4v.317a2.888,2.888,0,0,0,.206.809H5.708a1.809,1.809,0,0,0-1.317.317c-.746.587-.809,1.587-.111,2.856a23.8,23.8,0,0,0,1.856,2.824c.206.317.476.635.524.746a12.387,12.387,0,0,0,.7,1.111A15.962,15.962,0,0,1,8.58,19.952l.159.317h0c-.317-.159-.65-.254-.9-.365a5.172,5.172,0,0,0-1.587-.317,2.348,2.348,0,0,0-1.428.476h0a1.888,1.888,0,0,0-.587,1.015v.1c0,.428-.111,1.856,2.174,2.554h0a6.837,6.837,0,0,0,.7.27,7.425,7.425,0,0,1,1.222.888A12.042,12.042,0,0,0,11.1,26.837a8.853,8.853,0,0,0,3.665.793,7.377,7.377,0,0,0,3.4-.793,6.346,6.346,0,0,0,3.506-7.965ZM6.692,22.792h0c-1.587-.413-1.587-1.158-1.587-1.428a.53.53,0,0,1,.27-.476c.524-.428.952-.381,2.11,0a2.459,2.459,0,0,1,.809.317h0c.159.111.476.27.635.365a1.3,1.3,0,0,1,.476.381c.27.206.428.317.635.111s-.317-1.92-.635-2.507-.793-1.38-1.269-2.126c-.27-.413-.539-.793-.7-1.111a6.6,6.6,0,0,0-.571-.841c-1.333-1.809-2.665-3.728-1.92-4.3a1.015,1.015,0,0,1,.587-.159,3.951,3.951,0,0,1,2.015,1.745c.841,1.174,3.173,4.76,3.173,4.934a.476.476,0,0,0,.65.222c.254-.222.1-.587,0-.746a39.95,39.95,0,0,0-3.665-5.9l-.27-.365a4.347,4.347,0,0,1-.857-1.587v-.27a.841.841,0,0,1,.27-.587h.159c.7-.428,1.38.365,2.015,1.158.159.159.27.381.428.476.7.809,3.665,5.315,3.776,5.521a.476.476,0,0,0,.524.222c.159,0,.222-.317.159-.539A48.089,48.089,0,0,0,10.468,9.8a2.491,2.491,0,0,1-.793-1.92l.1-.206c0-.111.159-.222.27-.222,1.174-.476,3.776,3.506,4.252,4.3l2.174,3.617a.365.365,0,0,0,.428.206c.159-.1.1-.254,0-.413a11.693,11.693,0,0,0-1.015-2.031l-.413-.73-.539-.9c-.476-.857-.682-1.285-.317-1.587a.555.555,0,0,1,.428,0c.524.111,1.158.968,1.428,1.444a54.848,54.848,0,0,1,4.03,7.79,5.426,5.426,0,0,1-2.919,6.806h0a6.7,6.7,0,0,1-2.967.682,8.568,8.568,0,0,1-3.284-.682,12.232,12.232,0,0,1-2.761-1.856A5.855,5.855,0,0,0,6.978,23.03a3.336,3.336,0,0,0-.381-.222Z" transform="translate(2.546 4.107)" fill="#fff"/><path d="M24.956,21.676a1.936,1.936,0,0,0-.428-.888h0a2.094,2.094,0,0,0-1.222-.539,5.585,5.585,0,0,0-1.587.222,5.014,5.014,0,0,0-.9.254h-.159a4.6,4.6,0,0,0-.635.365h0a11.487,11.487,0,0,1,.587-1.174c.317-.476.9-1.317,1.428-2.015.317-.428.587-.793.793-1.111a5.68,5.68,0,0,1,.635-.746c1.587-1.856,3.506-4.141,2.189-5.252a1.587,1.587,0,0,0-.857-.365,2.063,2.063,0,0,0-1.174.317,3,3,0,0,0,.7-1.444h0V9.158a1.491,1.491,0,0,0-.539-1.174h0a.4.4,0,0,0-.206-.1,1.4,1.4,0,0,0-.635-.159,2.459,2.459,0,0,0-1.809.841,2.221,2.221,0,0,0,0-.793l-.111-.27h0a1.888,1.888,0,0,0-.587-.587,1.729,1.729,0,0,0-.476-.111c-.476,0-1.317.159-3.03,1.967a8.092,8.092,0,0,0-.888,1.063,1.349,1.349,0,0,0-.428-.587,1.777,1.777,0,0,0-.7-.27,3.522,3.522,0,0,0-2.063,1.222l.524.809s.159-.222.222-.222c.206-.254,1-1.269,1.476-.841s0,.587-.476,1.38c-.1.159-.476.635-.476.635l.587,1.222L15.722,11.6c.841-1.444,3.4-4.49,4.347-3.982a.381.381,0,0,1,.206.206v.222a2.443,2.443,0,0,1-.809,1.745,49.39,49.39,0,0,0-3.713,5.093.479.479,0,1,0,.857.428c.1-.206,3.284-4.252,4.03-4.934l.476-.476c.7-.7,1.38-1.444,2.015-1.126h.111a.555.555,0,0,1,.206.476h0v.159A3.586,3.586,0,0,1,22.5,11l-.27.365a46.819,46.819,0,0,0-4.3,6.108.508.508,0,0,0,.222.635.444.444,0,0,0,.635-.159c0-.1,2.221-3.173,3.173-4.395a6.441,6.441,0,0,1,2.6-2.031.539.539,0,0,1,.476.159c.635.587-1.333,2.919-2.285,4.046-.317.365-.539.635-.7.793l-.793,1.063c-.524.746-1.111,1.587-1.428,2.063-.159.222-1.333,2.237-.793,2.713s.571.159.841,0a1.38,1.38,0,0,1,.539-.317,4.061,4.061,0,0,1,.635-.333h0a2.554,2.554,0,0,1,.793-.206c1.222-.27,1.587-.27,2.015.111a.635.635,0,0,1,.222.428c0,.524-.539,1-1.587,1.206a.159.159,0,0,0-.159,0h0a2.744,2.744,0,0,1-.476.159,7.568,7.568,0,0,0-1.7,1,11.566,11.566,0,0,1-2.7,1.745,8.457,8.457,0,0,1-2.174.476c-.222.206-.428.365-.635.524a3.268,3.268,0,0,0-.587.365h.682a8.631,8.631,0,0,0,3.094-.571,10.408,10.408,0,0,0,3.078-1.856,5,5,0,0,1,1.428-.9l.539-.159h0c2.078-.635,2.126-1.92,2.078-2.348Z" transform="translate(7.859 4.318)" fill="#fff"/><rect width="0.637" height="2.293" transform="translate(17.292 9.416) rotate(-29.887)" fill="#fff"/><rect width="0.635" height="2.285" transform="translate(20.09 8.393) rotate(-0.11)" fill="#fff"/><rect width="2.285" height="0.635" transform="matrix(0.499, -0.867, 0.867, 0.499, 21.931, 10.966)" fill="#fff"/></g></svg>