<svg xmlns="http://www.w3.org/2000/svg" xmlns:xlink="http://www.w3.org/1999/xlink" width="41.019" height="41" viewBox="0 0 41.019 41"><defs><linearGradient id="a" x1="0.497" y1="1.017" x2="0.504" y2="-0.012" gradientUnits="objectBoundingBox"><stop offset="0" stop-color="#c463a7"/><stop offset="0.98" stop-color="#5a4b9f"/></linearGradient></defs><g transform="translate(0 -0.087)"><rect width="41" height="41" transform="translate(0.019 0.087)" fill="url(#a)"/><g transform="translate(0 0.091)" opacity="0.4"><path d="M40.992.09v12.3a8.2,8.2,0,0,1-8.2,8.2H8.2a8.2,8.2,0,0,1-8.2-8.2V.09Z" transform="translate(0 -0.09)" fill="#fff"/></g><path d="M7.741,16.511H6.675l1.3-4.919H6.15v-.9H9.3Z" transform="translate(3.934 6.782)" fill="#fff"/><path d="M8.05,16.9H6.41l1.3-4.919H6V10.52H9.755Zm-.918-.557H7.64l1.41-5.263H6.525v.344H8.443Z" transform="translate(3.838 6.673)" fill="#fff"/><path d="M12.981,16.511H11.915l1.312-4.919H11.39v-.9h3.148Z" transform="translate(7.286 6.782)" fill="#fff"/><path d="M13.319,16.9h-1.64l1.312-4.919H11.22V10.52h3.788Zm-.935-.557h.492l1.41-5.263H11.777v.344H13.7Z" transform="translate(7.177 6.673)" fill="#fff"/><path d="M18.231,14.971h-1l1.3-4.919H16.64v-.9h3.148Z" transform="translate(10.644 5.797)" fill="#fff"/><path d="M18.552,15.346h-1.64l1.312-4.919H16.47V9h3.788Zm-.918-.557h.492L19.52,9.525H17.027v.361h1.951Z" transform="translate(10.536 5.701)" fill="#fff"/><path d="M31.35,28.113H4.59A.672.672,0,0,1,4,27.457V6.469a.672.672,0,0,1,.672-.689H31.35a.689.689,0,0,1,.689.689V27.457a.689.689,0,0,1-.689.656ZM5.279,26.735H30.661V7.141H5.279Z" transform="translate(2.559 3.641)" fill="#fff"/><path d="M31.491,28.5H4.731a.951.951,0,0,1-.951-.935V6.577a.951.951,0,0,1,.951-.967h26.76a.967.967,0,0,1,.967.967V27.565A.967.967,0,0,1,31.491,28.5ZM4.731,6.249a.41.41,0,0,0-.394.41V27.565a.41.41,0,0,0,.394.41h26.76a.41.41,0,0,0,.41-.41V6.577a.41.41,0,0,0-.41-.328Zm26.35,20.873H5.141V6.971h25.94Zm-25.3-.557H30.523V7.528H5.78Z" transform="translate(2.418 3.532)" fill="#fff"/><path d="M9.879,28.113a.689.689,0,0,1-.689-.656V6.469a.689.689,0,1,1,1.377,0V27.457a.689.689,0,0,1-.689.656Z" transform="translate(5.879 3.641)" fill="#fff"/><path d="M10,28.5a.951.951,0,0,1-1-.935V6.577a.951.951,0,0,1,.967-.967.967.967,0,0,1,.967.967V27.566A.967.967,0,0,1,10,28.5ZM10,6.25a.41.41,0,0,0-.41.41V27.566a.41.41,0,1,0,.8,0V6.577A.41.41,0,0,0,10,6.25Z" transform="translate(5.757 3.532)" fill="#fff"/><path d="M15.112,28.113a.672.672,0,0,1-.672-.689V6.469a.672.672,0,0,1,.672-.689.689.689,0,0,1,.689.689V27.457a.689.689,0,0,1-.689.656Z" transform="translate(9.237 3.641)" fill="#fff"/><path d="M15.224,28.549a.951.951,0,0,1-.951-.967V6.626a.967.967,0,1,1,1.918,0V27.615A.951.951,0,0,1,15.224,28.549Zm0-22.251a.41.41,0,0,0-.394.41V27.615a.41.41,0,1,0,.8,0V6.626A.41.41,0,0,0,15.224,6.3Z" transform="translate(9.125 3.483)" fill="#fff"/><path d="M24.3,15.337H15.709a.689.689,0,0,1,0-1.377H24.3a.689.689,0,0,1,0,1.377Z" transform="translate(9.608 8.874)" fill="#fff"/><path d="M24.409,15.755H15.817a.967.967,0,0,1-.967-.967.951.951,0,0,1,.967-.967h8.592a.967.967,0,0,1,.967.967.984.984,0,0,1-.967.967Zm-8.592-1.377a.41.41,0,0,0,0,.82h8.592a.41.41,0,1,0,0-.82Z" transform="translate(9.499 8.784)" fill="#fff"/></g></svg>