<svg xmlns="http://www.w3.org/2000/svg" xmlns:xlink="http://www.w3.org/1999/xlink" width="41" height="41" viewBox="0 0 41 41"><defs><linearGradient id="a" x1="0.494" y1="1.073" x2="0.505" y2="0.007" gradientUnits="objectBoundingBox"><stop offset="0" stop-color="#70c172"/><stop offset="0.98" stop-color="#149a8e"/></linearGradient></defs><g transform="translate(0.417 -0.021)"><rect width="41" height="41" transform="translate(-0.417 0.021)" fill="url(#a)"/><path d="M17.631,31.682A13.741,13.741,0,1,1,31.372,17.941,13.741,13.741,0,0,1,17.631,31.682Zm0-25.838a12.1,12.1,0,1,0,12.1,12.1,12.1,12.1,0,0,0-12.1-12.1Z" transform="translate(2.453 2.708)" fill="#fff"/><path d="M16.577,21.193,9.22,18.767V11.314L16.194,9l4.644,6.065Zm-5.7-3.623,5.043,1.676L18.8,15.128,15.6,10.963l-4.788,1.6Z" transform="translate(5.629 5.568)" fill="#fff"/><path d="M5.272,13.87,4.49,12.418l3.83-2.075.67-4.213,1.628.255-.8,5.027Z" transform="translate(2.81 3.858)" fill="#fff"/><rect width="1.644" height="4.692" transform="translate(11.391 15.42) rotate(-54.13)" fill="#fff"/><path d="M15.207,13l-1.564-.511,1.245-3.7L11.68,5.519,12.861,4.37l3.91,3.99Z" transform="translate(7.095 2.809)" fill="#fff"/><rect width="5.139" height="1.644" transform="translate(22.766 10.565) rotate(-10.72)" fill="#fff"/><path d="M15.876,15.479l-.016-1.644,4.1-.032L21.845,9.75l1.5.7-2.33,5Z" transform="translate(9.586 6.015)" fill="#fff"/><rect width="1.644" height="4.724" transform="translate(29.336 21.035) rotate(-28.4)" fill="#fff"/><path d="M12.839,23.1,11.69,21.914l3.862-3.734,5.442.83-.239,1.628-4.644-.7Z" transform="translate(7.101 11.039)" fill="#fff"/><rect width="1.644" height="4.437" transform="translate(21.087 25.973) rotate(-13.72)" fill="#fff"/><path d="M7.964,22.878l-.974-5.57,3.894-2.968.989,1.309-3.08,2.362.8,4.58Z" transform="translate(4.3 8.751)" fill="#fff"/><rect width="1.644" height="4.804" transform="translate(7.442 25.309) rotate(-67.03)" fill="#fff"/><g transform="translate(-0.416 0.102)" opacity="0.4"><path d="M41,.31v12.3a8.2,8.2,0,0,1-8.2,8.2H8.2A8.2,8.2,0,0,1,0,12.61V.31Z" transform="translate(0 -0.31)" fill="#fff"/></g></g></svg>