<svg xmlns="http://www.w3.org/2000/svg" xmlns:xlink="http://www.w3.org/1999/xlink" width="40.92" height="40.887" viewBox="0 0 40.92 40.887"><defs><linearGradient id="a" x1="0.495" y1="1.005" x2="0.505" y2="-0.005" gradientUnits="objectBoundingBox"><stop offset="0" stop-color="#66c081"/><stop offset="0.98" stop-color="#6088c1"/></linearGradient></defs><g transform="translate(0 -0.09)"><rect width="40.887" height="40.887" transform="translate(0.033 0.09)" fill="url(#a)"/><path d="M15.915,24.08a12.2,12.2,0,0,1-8.455-3.794C3.027,15.9,2.438,9.361,6.118,5.7s10.222-3.091,14.6,1.292h0c4.383,4.383,4.906,10.941,1.292,14.6A8.488,8.488,0,0,1,15.915,24.08Zm-3.7-19.348a6.984,6.984,0,0,0-5.07,2C4.057,9.819,4.63,15.445,8.457,19.255s9.437,4.4,12.528,1.308S23.5,11.847,19.676,8.02a10.892,10.892,0,0,0-6.542-3.271,7.409,7.409,0,0,0-.916-.016Z" transform="translate(2.354 2.031)" fill="#fff"/><path d="M14.023,19.992,4.03,9.574l.621-.654L14.677,19.354Z" transform="translate(2.561 5.611)" fill="#fff"/><rect width="0.916" height="13.329" transform="matrix(0.721, -0.693, 0.693, 0.721, 16.097, 6.493)" fill="#fff"/><rect width="0.916" height="19.822" transform="translate(7.053 11.2) rotate(-44.87)" fill="#fff"/><path d="M4.708,13.524,4.07,12.87l9.339-9.29.654.654Z" transform="translate(2.586 2.218)" fill="#fff"/><path d="M5.354,16.3,4.7,15.649,16.148,4.25l.654.638Z" transform="translate(2.987 2.644)" fill="#fff"/><rect width="17.32" height="0.916" transform="matrix(0.709, -0.705, 0.705, 0.709, 9.564, 21.049)" fill="#fff"/><path d="M8.044,19.492l-.654-.654L19.264,7.03l.654.638Z" transform="translate(4.696 4.41)" fill="#fff"/><path d="M9.994,19.68l-.654-.654L19.4,9l.654.638-.393.409Z" transform="translate(5.935 5.662)" fill="#fff"/><rect width="0.916" height="19.822" transform="translate(9.29 8.822) rotate(-44.87)" fill="#fff"/><rect width="0.916" height="18.923" transform="translate(11.745 6.851) rotate(-44.87)" fill="#fff"/><path d="M16.512,18.018a10.713,10.713,0,0,0-3.892-1.864L12.9,14.96A12.1,12.1,0,0,1,17.33,17.1Z" transform="translate(8.02 9.45)" fill="#fff"/><path d="M17.017,17.623a11.023,11.023,0,0,1-1.9-4.318l1.194-.245a10.042,10.042,0,0,0,1.635,3.762Z" transform="translate(9.609 8.242)" fill="#fff"/><rect width="3.549" height="12.462" rx="0.96" transform="translate(23.8 26.633) rotate(-45)" fill="#fff"/><path d="M23.2,25.506a2.061,2.061,0,0,1-1.472-.605l-6.313-6.313a2.077,2.077,0,0,1,0-2.928,2.126,2.126,0,0,1,2.944,0l6.313,6.3a2.11,2.11,0,0,1,0,2.944h0a2.061,2.061,0,0,1-1.472.605Zm-6.313-9.813a1.39,1.39,0,0,0-1.03.425,1.472,1.472,0,0,0,0,2.077l6.3,6.313a1.488,1.488,0,0,0,2.093,0h0a1.472,1.472,0,0,0,0-2.077l-6.313-6.313a1.456,1.456,0,0,0-1.047-.458Z" transform="translate(9.412 9.518)" fill="#fff"/><g transform="translate(0 0.09)" opacity="0.3"><path d="M40.887.09V12.356a8.177,8.177,0,0,1-8.177,8.177H8.177A8.177,8.177,0,0,1,0,12.356V.09Z" transform="translate(0 -0.09)" fill="#fff"/></g></g></svg>