<svg xmlns="http://www.w3.org/2000/svg" xmlns:xlink="http://www.w3.org/1999/xlink" viewBox="0 0 1489 1429"><defs><clipPath id="a" transform="translate(105 439)"><rect width="1278" height="631" fill="none"/></clipPath></defs><path d="M89.84,552.52c.29-.2,4.85-.66,5.24,2.27,1,3.42-4,4.6-4.45,4s-2.09-1.92-2.11-2.6S88.52,553.34,89.84,552.52Z" transform="translate(105 439)" fill="#eaeaea"/><path d="M92.22,561.66s2.65-1.35,3.21-1.66,2-2.58,2-2.3.39-2.58,1.64-2.37,3.93,1.73,4.41,2.63a4.22,4.22,0,0,1-.28,3.57c-.56.69-.13.74-1.74,1.81a30.24,30.24,0,0,0-4.7,4.13,1.84,1.84,0,0,1-2.3,0,23.75,23.75,0,0,1-2.09-2.78A11.43,11.43,0,0,1,92.22,561.66Z" transform="translate(105 439)" fill="#eaeaea"/><circle cx="492.2" cy="536.32" r="4.84" fill="#eaeaea" stroke="#90a3b8" stroke-miterlimit="10" stroke-width="0.5"/><g opacity="0.7"><path d="M689.57,18h0a1.45,1.45,0,0,1-.93,1.83l-16.75,5.54a1.45,1.45,0,0,1-1.83-.92h0A1.45,1.45,0,0,1,671,22.6l16.75-5.54A1.46,1.46,0,0,1,689.57,18Z" transform="translate(105 439)" fill="#90a3b8"/><path d="M683,31h0a1.45,1.45,0,0,1-1.83-.92L675.67,13.3a1.45,1.45,0,0,1,.92-1.84h0a1.45,1.45,0,0,1,1.83.93L684,29.13A1.45,1.45,0,0,1,683,31Z" transform="translate(105 439)" fill="#90a3b8"/></g><path d="M245,147.16h0a.92.92,0,0,1-.59,1.16l-10.66,3.52a.92.92,0,0,1-1.16-.58h0a.92.92,0,0,1,.59-1.17l10.65-3.52A.92.92,0,0,1,245,147.16Z" transform="translate(105 439)" fill="#90a3b8"/><path d="M240.87,155.41h0a.92.92,0,0,1-1.17-.58l-3.52-10.66a.92.92,0,0,1,.58-1.16h0a.93.93,0,0,1,1.17.58l3.52,10.66A.92.92,0,0,1,240.87,155.41Z" transform="translate(105 439)" fill="#90a3b8"/><path d="M797.22,448.88h0a1,1,0,0,1-.6,1.21l-11,3.63a1,1,0,0,1-1.21-.6h0a1,1,0,0,1,.61-1.21l11-3.63A.94.94,0,0,1,797.22,448.88Z" transform="translate(105 439)" fill="#90a3b8"/><path d="M792.93,457.41h0a1,1,0,0,1-1.2-.61l-3.64-11a.94.94,0,0,1,.6-1.2h0a1,1,0,0,1,1.21.6l3.64,11A1,1,0,0,1,792.93,457.41Z" transform="translate(105 439)" fill="#90a3b8"/><circle cx="536.2" cy="855.32" r="8.12" fill="#eaeaea" stroke="#90a3b8" stroke-miterlimit="10"/><circle cx="1209.36" cy="683.12" r="8.12" fill="#eaeaea" stroke="#90a3b8" stroke-miterlimit="10"/><path d="M889.69,79.79,917.6,59.46l2.7,4.37s-2,2.77-1.53,4.74,3.5,3.35,4.08,3.35a22.09,22.09,0,0,0,3-.73l3.2,4.37L901,96l-3.57-4.81s3.14-3.35,1.46-5.9-6.34-1-6.34-1Z" transform="translate(105 439)" fill="#eaeaea"/><g opacity="0.7"><path d="M921.25,64.91a1.06,1.06,0,0,0,.24-1.47h0l-3.31-4.56a1.07,1.07,0,0,0-1.48-.23h0L888.81,78.92a1.06,1.06,0,0,0-.23,1.48h0L891.89,85a1,1,0,0,0,1.47.23h0a3.17,3.17,0,0,1,3.72,5.13,1.05,1.05,0,0,0-.23,1.47h0l3.31,4.56a1.05,1.05,0,0,0,1.47.23h0L929.53,76.3a1.06,1.06,0,0,0,.23-1.48h0l-3.31-4.55A1,1,0,0,0,925,70h0a3.17,3.17,0,0,1-3.73-5.13Zm4,7.37,2.13,2.93-17.93,13-1.86-2.56a1.06,1.06,0,0,0-1.71,1.24l1.86,2.56-6.54,4.76-2.13-2.93A5.28,5.28,0,0,0,893,82.94L890.91,80l6.54-4.75,1.86,2.56a1.07,1.07,0,0,0,1.48.23,1.05,1.05,0,0,0,.23-1.47L899.16,74l17.93-13,2.13,2.93a5.28,5.28,0,0,0,6.08,8.37Z" transform="translate(105 439)" fill="#90a3b8"/><path d="M902,79.75a1.07,1.07,0,0,0-.24,1.48l1.66,2.28a1.05,1.05,0,0,0,1.47.23,1.07,1.07,0,0,0,.24-1.48L903.5,80a1.06,1.06,0,0,0-1.47-.24Z" transform="translate(105 439)" fill="#90a3b8"/></g><path d="M151.3,358l24,10.66-1.86,3.45s-2.6-.29-3.71.79-.88,3.59-.65,4a17.17,17.17,0,0,0,1.61,1.69l-1.66,3.78-24.19-10.7,1.82-4.19s3.4.79,4.45-1.29-1.74-4.57-1.74-4.57Z" transform="translate(105 439)" fill="#eaeaea"/><g opacity="0.7"><path d="M173.12,373.13a.8.8,0,0,0,1.06-.4l1.74-3.92a.8.8,0,0,0-.4-1.06l-24-10.68a.81.81,0,0,0-1.06.41l-1.74,3.92a.81.81,0,0,0,.4,1.06h0a2.41,2.41,0,1,1-2,4.4h0a.79.79,0,0,0-1,.41h0l-1.75,3.92a.79.79,0,0,0,.41,1.05h0l24,10.68a.79.79,0,0,0,1-.41l1.75-3.91a.81.81,0,0,0-.41-1.06,2.41,2.41,0,0,1,2-4.4h0Zm-3.31,5.48-1.12,2.52-15.43-6.86,1-2.21a.8.8,0,1,0-1.46-.65l-1,2.2-5.63-2.5,1.12-2.52a4,4,0,0,0,3.2-7.2l1.12-2.52,5.63,2.51-1,2.2a.8.8,0,0,0,1.47.65l1-2.2,15.42,6.86L173,371.41a4,4,0,0,0-3.2,7.2Z" transform="translate(105 439)" fill="#90a3b8"/><path d="M156,366.11a.79.79,0,0,0-1,.4l-.88,2a.81.81,0,1,0,1.47.66l.87-2a.8.8,0,0,0-.4-1.06Z" transform="translate(105 439)" fill="#90a3b8"/></g><path d="M1042.76,511.63l8.07,41.27-6.21.73s-2-3.68-4.44-4.13-5.5,2.13-5.8,2.78a26.8,26.8,0,0,0-.74,3.67l-6.47,1.29L1019,515.73l7.14-1.46s2.09,5.18,5.77,4.64,4.39-6.47,4.39-6.47Z" transform="translate(105 439)" fill="#eaeaea"/><g opacity="0.7"><path d="M1042.94,554.1a1.29,1.29,0,0,0,1.51,1l6.73-1.31a1.28,1.28,0,0,0,1-1.51l-8-41.21a1.29,1.29,0,0,0-1.51-1l-6.73,1.31a1.29,1.29,0,0,0-1,1.51,3.85,3.85,0,1,1-7.54,1.59l0-.12a1.28,1.28,0,0,0-1.5-1l-6.73,1.31a1.29,1.29,0,0,0-1,1.51l8,41.21a1.29,1.29,0,0,0,1.51,1l6.73-1.31a1.29,1.29,0,0,0,1-1.51,3.86,3.86,0,0,1,7.57-1.47Zm-10.21.68-4.33.84-5.16-26.49,3.79-.74a1.28,1.28,0,0,0-.49-2.52h0l-3.79.73-1.88-9.67,4.33-.84a6.43,6.43,0,0,0,12.37-2.41l4.33-.84,1.88,9.67-3.79.74a1.28,1.28,0,0,0,.49,2.52h0l3.78-.74,5.16,26.5-4.34.84a6.43,6.43,0,0,0-12.36,2.41Z" transform="translate(105 439)" fill="#90a3b8"/><path d="M1036.46,525.25a1.29,1.29,0,0,0-1.51-1l-3.37.65a1.29,1.29,0,0,0,.5,2.53l3.36-.66A1.28,1.28,0,0,0,1036.46,525.25Z" transform="translate(105 439)" fill="#90a3b8"/></g><path d="M1174,51.86a8.2,8.2,0,0,0,10.62-10.81,8.19,8.19,0,0,0-10.75-4.34,8.2,8.2,0,0,0,.13,15.15Zm.65-13.32a6.2,6.2,0,0,1,8.13,3.28h0a6.22,6.22,0,0,1-3.28,8.14,6.21,6.21,0,0,1-8.14-3.28h0a6.2,6.2,0,0,1,3.29-8.13Z" transform="translate(105 439)" fill="#8fa2b8" opacity="0.7" style="isolation:isolate"/><path d="M1183.61,66.3a21.6,21.6,0,0,0,.55-2.1,18.22,18.22,0,0,0,.32-2.2,10.88,10.88,0,0,0-.07-2.21,7.52,7.52,0,0,0-.59-2.12,5.9,5.9,0,0,0-1.33-1.84,6.59,6.59,0,0,0-2.11-1.34,2.56,2.56,0,0,0-1.45,0l-1.63.31a8,8,0,0,1-2,.06,6.93,6.93,0,0,1-4.07-1.64,7.61,7.61,0,0,1-1.37-1.41c-.36-.5-.68-1-1-1.35a2.49,2.49,0,0,0-1-1,6.78,6.78,0,0,0-2.44-.51,6.08,6.08,0,0,0-2.24.4,7.92,7.92,0,0,0-1.9,1.12,10.46,10.46,0,0,0-1.58,1.54,18,18,0,0,0-1.3,1.81c-.38.61-.74,1.24-1.06,1.89s-.56,1.21-.81,1.84a5.65,5.65,0,0,0,0,4.59,6,6,0,0,0,3.42,3.08l15.2,6.15a6.06,6.06,0,0,0,4.6.16,5.66,5.66,0,0,0,3.16-3.34q.39-1,.69-1.89ZM1179,69.67a4.12,4.12,0,0,1-3.12-.15l-15.21-6.14a4.11,4.11,0,0,1-2.35-2.06,3.76,3.76,0,0,1,.08-3c.24-.59.5-1.16.76-1.71a19,19,0,0,1,1-1.7,13.91,13.91,0,0,1,1.14-1.59,8.54,8.54,0,0,1,1.3-1.25,5.08,5.08,0,0,1,1.4-.83,3.76,3.76,0,0,1,1.48-.26,4.43,4.43,0,0,1,1.57.31c0,.06.14.17.28.37l1,1.36a9.62,9.62,0,0,0,1.71,1.78,9,9,0,0,0,5.21,2.11,10.19,10.19,0,0,0,2.47-.09l1.64-.32.46-.07a4.55,4.55,0,0,1,1.34.87,3.69,3.69,0,0,1,.89,1.22,5.31,5.31,0,0,1,.42,1.56,9,9,0,0,1,.06,1.79,14.1,14.1,0,0,1-.29,1.95,18.1,18.1,0,0,1-.49,1.89h0c-.19.57-.4,1.16-.64,1.76a3.66,3.66,0,0,1-2,2.22Z" transform="translate(105 439)" fill="#8fa2b8" opacity="0.7" style="isolation:isolate"/><path d="M114.16,31.83a5.14,5.14,0,0,0,2.45-3.2,5.26,5.26,0,0,0-3.72-6.43,5.25,5.25,0,0,0-6.43,3.71h0a5.26,5.26,0,0,0,7.7,5.92Zm-6.47-5.58a4,4,0,0,1,4.87-2.82h0A3.85,3.85,0,0,1,115,25.29a3.78,3.78,0,0,1,.39,3,4,4,0,0,1-4.86,2.81h0a4,4,0,0,1-2.82-4.86Z" transform="translate(105 439)" fill="#8fa2b8" opacity="0.7" style="isolation:isolate"/><path d="M125.25,32.65a12.78,12.78,0,0,0-.84-1.1,9.54,9.54,0,0,0-1-1,7.12,7.12,0,0,0-1.14-.84,5.17,5.17,0,0,0-1.31-.54,3.73,3.73,0,0,0-1.45-.05,4.2,4.2,0,0,0-1.51.54,1.58,1.58,0,0,0-.56.74l-.48.94a5.36,5.36,0,0,1-.75,1,4.41,4.41,0,0,1-2.44,1.4,4.67,4.67,0,0,1-1.24.14l-1.06,0a1.53,1.53,0,0,0-.92.11,4.22,4.22,0,0,0-1.22,1,3.87,3.87,0,0,0-.69,1.28,5.12,5.12,0,0,0-.18,1.4,6.62,6.62,0,0,0,.15,1.41,13.38,13.38,0,0,0,.4,1.37c.16.43.34.86.54,1.28s.39.76.6,1.14a3.6,3.6,0,0,0,2.31,1.83,3.85,3.85,0,0,0,2.9-.51l9.1-5.25a3.86,3.86,0,0,0,1.89-2.26,3.63,3.63,0,0,0-.44-2.91c-.22-.38-.45-.75-.68-1.09Zm-.1,3.64a2.62,2.62,0,0,1-1.31,1.52l-9.1,5.25a2.61,2.61,0,0,1-2,.38,2.37,2.37,0,0,1-1.5-1.23c-.2-.36-.39-.71-.56-1.06a10.67,10.67,0,0,1-.84-2.37,5.38,5.38,0,0,1-.12-1.14,3.59,3.59,0,0,1,.13-1,2.51,2.51,0,0,1,.46-.85,3.07,3.07,0,0,1,.77-.67h.3l1.07,0a6.47,6.47,0,0,0,1.58-.16,5.73,5.73,0,0,0,3.11-1.8,6.06,6.06,0,0,0,.93-1.28l.49-1,.15-.26a3,3,0,0,1,1-.33,2.63,2.63,0,0,1,1,0,3.68,3.68,0,0,1,1,.4,5.54,5.54,0,0,1,.93.68,9.35,9.35,0,0,1,.87.91c.27.32.52.65.76,1h0c.22.32.43.67.63,1a2.35,2.35,0,0,1,.32,1.91Z" transform="translate(105 439)" fill="#8fa2b8" opacity="0.7" style="isolation:isolate"/><path d="M94.64,558.37a4.06,4.06,0,0,0-2.87-6.93,4.06,4.06,0,0,0-4.06,4.06h0a4.06,4.06,0,0,0,6.93,2.87ZM88.7,555.5a3.06,3.06,0,0,1,3.07-3.07h0a3.07,3.07,0,0,1,3.07,3.07,3.06,3.06,0,0,1-3.07,3.07h0a3.07,3.07,0,0,1-3.07-3.07Z" transform="translate(105 439)" fill="#8fa2b8"/><path d="M103.09,556.77a9.08,9.08,0,0,0-.85-.65,7.67,7.67,0,0,0-.94-.58,5.49,5.49,0,0,0-1-.39A4,4,0,0,0,99.2,555a3,3,0,0,0-1.1.26,3.1,3.1,0,0,0-1,.7,1.33,1.33,0,0,0-.27.67c0,.23-.1.5-.17.8a4.1,4.1,0,0,1-.35.9,3.38,3.38,0,0,1-1.54,1.54,4.18,4.18,0,0,1-.91.35l-.8.17a1.33,1.33,0,0,0-.66.27,3.29,3.29,0,0,0-.71,1,3.2,3.2,0,0,0-.25,1.1,4,4,0,0,0,.15,1.08,5.49,5.49,0,0,0,.39,1,7.67,7.67,0,0,0,.58.94,9.08,9.08,0,0,0,.65.85c.21.24.44.49.69.73a2.75,2.75,0,0,0,2.08.91,3,3,0,0,0,2.07-1l5.74-5.74a3,3,0,0,0,1-2.07,2.75,2.75,0,0,0-.91-2.08c-.24-.24-.48-.47-.73-.69Zm.65,2.75a2,2,0,0,1-.67,1.39l-5.74,5.74a2,2,0,0,1-1.39.67,1.84,1.84,0,0,1-1.37-.62c-.22-.22-.43-.45-.63-.67a8.73,8.73,0,0,1-.59-.77,6.36,6.36,0,0,1-.51-.83,4.6,4.6,0,0,1-.32-.83,2.64,2.64,0,0,1-.1-.79,1.82,1.82,0,0,1,.17-.73,2.31,2.31,0,0,1,.44-.66l.23-.06.81-.17a5.08,5.08,0,0,0,1.14-.44,4.47,4.47,0,0,0,2-2,5.08,5.08,0,0,0,.44-1.14c.06-.31.12-.57.18-.81s0-.19,0-.23a2.46,2.46,0,0,1,.66-.44,1.86,1.86,0,0,1,.73-.17,2.65,2.65,0,0,1,.79.11,3.48,3.48,0,0,1,.83.32,6.3,6.3,0,0,1,.83.5,8.73,8.73,0,0,1,.77.59h0c.23.2.45.41.68.63a1.87,1.87,0,0,1,.62,1.37Z" transform="translate(105 439)" fill="#8fa2b8"/><g clip-path="url(#a)"><g opacity="0.2"><ellipse cx="744.5" cy="714.5" rx="92.5" ry="88.5" fill="none"/><ellipse cx="744.5" cy="714.5" rx="92" ry="88" fill="none" stroke="#90a3b9"/></g><g opacity="0.2"><ellipse cx="744.5" cy="714.5" rx="191.5" ry="183.5" fill="none"/><ellipse cx="744.5" cy="714.5" rx="191" ry="183" fill="none" stroke="#90a3b9"/></g><g opacity="0.2"><ellipse cx="744.5" cy="714.5" rx="295.5" ry="283.5" fill="none"/><ellipse cx="744.5" cy="714.5" rx="295" ry="283" fill="none" stroke="#90a3b9"/></g><g opacity="0.2"><ellipse cx="744.5" cy="714.5" rx="406.5" ry="390.5" fill="none"/><ellipse cx="744.5" cy="714.5" rx="406" ry="390" fill="none" stroke="#90a3b9"/></g><g opacity="0.2"><path d="M639.5-250C941.88-250,1187-14.73,1187,275.5S941.88,801,639.5,801,92,565.73,92,275.5A506.55,506.55,0,0,1,161,19.94C254.74-141.21,433.88-250,639.5-250Z" transform="translate(105 439)" fill="none"/><path d="M639.5-249a577.16,577.16,0,0,0-75.62,5,565,565,0,0,0-72.45,14.5A555.2,555.2,0,0,0,358.8-174.59,546.16,546.16,0,0,0,247.1-89.51a529.71,529.71,0,0,0-85.24,110,506.26,506.26,0,0,0-25.92,459.21c6.86,15.55,14.6,31,23,45.84s17.56,29.31,27.37,43.25,20.35,27.45,31.46,40.37,22.95,25.43,35.27,37.25,25.38,23.22,38.81,33.86,27.62,20.82,42.07,30.19,29.68,18.26,45.06,26.28,31.56,15.51,47.77,22.09c16.37,6.64,33.26,12.57,50.22,17.64,17.14,5.12,34.77,9.46,52.37,12.92,17.84,3.51,36.1,6.18,54.27,7.95,18.44,1.8,37.24,2.71,55.88,2.71s37.44-.91,55.88-2.71c18.17-1.77,36.43-4.44,54.27-7.95,17.6-3.46,35.23-7.8,52.37-12.92,17-5.07,33.85-11,50.22-17.64,16.21-6.58,32.28-14,47.77-22.09s30.54-16.86,45.06-26.28,28.6-19.53,42.07-30.19,26.49-22,38.81-33.86,24.18-24.35,35.27-37.25,21.7-26.5,31.46-40.37,19-28.49,27.37-43.25,16.15-30.29,23-45.84a509.49,509.49,0,0,0,18.37-48.19,503,503,0,0,0,21.75-102.34,508,508,0,0,0-8.28-159.32,504,504,0,0,0-13.47-50.26,509.49,509.49,0,0,0-18.37-48.19c-6.86-15.55-14.6-31-23-45.84s-17.56-29.31-27.37-43.25-20.35-27.45-31.46-40.37-23-25.43-35.27-37.25-25.38-23.22-38.81-33.86S959.52-150,945.07-159.41,915.39-177.67,900-185.69s-31.56-15.51-47.77-22.09C835.87-214.42,819-220.35,802-225.42c-17.14-5.12-34.77-9.46-52.37-12.92-17.84-3.51-36.1-6.18-54.27-7.95-18.44-1.8-37.24-2.71-55.88-2.71m0-1C941.88-250,1187-14.73,1187,275.5S941.88,801,639.5,801,92,565.73,92,275.5A506.53,506.53,0,0,1,161,19.94C254.74-141.21,433.88-250,639.5-250Z" transform="translate(105 439)" fill="#90a3b9"/></g><g opacity="0.2"><ellipse cx="744.5" cy="714.5" rx="744.5" ry="714.5" fill="none"/><ellipse cx="744.5" cy="714.5" rx="744" ry="714" fill="none" stroke="#90a3b9"/></g></g></svg>
