<svg xmlns="http://www.w3.org/2000/svg" width="25" height="25" viewBox="0 0 25 25"><g transform="translate(-504 -30)"><g transform="translate(504 30)"><path d="M4.2,25A3.643,3.643,0,0,1,.6,21.409v-.19A20.442,20.442,0,0,1,21.025.81h.2A3.653,3.653,0,0,1,24.82,4.4v.19A20.452,20.452,0,0,1,4.385,25Z" transform="translate(-0.22 -0.41)" fill="#fff"/><path d="M21.025,1.188h.2A3.254,3.254,0,0,1,24.441,4.4v.19a19.84,19.84,0,0,1-5.873,14.166A19.9,19.9,0,0,1,4.385,24.632H4.2A3.264,3.264,0,0,1,1,21.41v-.19A20.074,20.074,0,0,1,21.025,1.188h0m0-.748h0A20.783,20.783,0,0,0,.22,21.22v.2a3.993,3.993,0,0,0,4,3.99h.2A20.792,20.792,0,0,0,25.19,4.59V4.4a3.993,3.993,0,0,0-4-3.99Z" transform="translate(-0.22 -0.41)" fill="#364556"/><path d="M25.19,4.4v.2A20.792,20.792,0,0,1,4.375,25.38h-.19a3.994,3.994,0,0,1-3.855-3.1,3.56,3.56,0,0,0,.859.11h.19A20.792,20.792,0,0,0,22.194,1.607v-.2a3.547,3.547,0,0,0-.11-.858A3.991,3.991,0,0,1,25.19,4.4Z" transform="translate(-0.22 -0.41)" opacity="0.1"/><path d="M.22,21.419v-.2A20.792,20.792,0,0,1,21.035.44h.19a3.994,3.994,0,0,1,3.855,3.1,3.56,3.56,0,0,0-.859-.11h-.19A20.792,20.792,0,0,0,3.216,24.213v.2a3.547,3.547,0,0,0,.11.858A3.991,3.991,0,0,1,.22,21.419Z" transform="translate(-0.22 -0.41)" fill="#fff" opacity="0.2"/><path d="M4.217,25.38l-2-1v-.2A21.817,21.817,0,0,1,24.032,2.44h.19l1,1.995H24.032A19.811,19.811,0,0,0,4.217,24.213Z" transform="translate(-0.22 -0.41)" fill="#4662c6"/><path d="M21.025,1.188h.2A3.254,3.254,0,0,1,24.441,4.4v.19a19.84,19.84,0,0,1-5.873,14.166A19.9,19.9,0,0,1,4.385,24.632H4.2A3.264,3.264,0,0,1,1,21.41v-.19A20.074,20.074,0,0,1,21.025,1.188h0m0-.748h0A20.783,20.783,0,0,0,.22,21.22v.2a3.993,3.993,0,0,0,4,3.99h.2A20.792,20.792,0,0,0,25.19,4.59V4.4a3.993,3.993,0,0,0-4-3.99Z" transform="translate(-0.22 -0.41)" fill="#364556"/></g></g></svg>