<svg xmlns="http://www.w3.org/2000/svg" width="23.037" height="25.001" viewBox="0 0 23.037 25.001"><g transform="translate(-1.883 -0.689)"><path d="M22.61,9.82h1.12a.76.76,0,0,1,.78.74V12.8a.79.79,0,0,1-1.36.5,3.28,3.28,0,0,1-.54-.75Z" fill="#edba70"/><path d="M23.73,13.9a1.19,1.19,0,0,1-.85-.35,4.07,4.07,0,0,1-.61-.84.42.42,0,0,1,0-.16V9.82a.37.37,0,0,1,.37-.36h1.13a1.13,1.13,0,0,1,1.15,1.1V12.8a1.14,1.14,0,0,1-1.15,1.1ZM23,12.46a2.76,2.76,0,0,0,.44.6.42.42,0,0,0,.46.1.39.39,0,0,0,.26-.36V10.56a.41.41,0,0,0-.41-.39H23Z" fill="#364556"/><path d="M14.04,10.73l8.57-.92v2.74l-8.57.79Z" fill="#fff"/><path d="M14.05,13.7a.37.37,0,0,1-.25-.1.32.32,0,0,1-.12-.26V10.73a.37.37,0,0,1,.32-.36l8.56-.91a.42.42,0,0,1,.29.09.35.35,0,0,1,.13.27v2.73a.37.37,0,0,1-.34.36l-8.56.78Zm.37-2.65V13l7.81-.72v-2Z" fill="#364556"/><path d="M11.71,23.51v1.07a.76.76,0,0,1-.78.75H8.6A.75.75,0,0,1,8.07,24a3.45,3.45,0,0,1,.79-.52Z" fill="#edba70"/><path d="M10.93,25.69H8.6A1.14,1.14,0,0,1,7.53,25a1.1,1.1,0,0,1,.29-1.23,3.86,3.86,0,0,1,.87-.58.33.33,0,0,1,.17,0h2.85a.37.37,0,0,1,.37.36v1.07a1.14,1.14,0,0,1-1.15,1.07ZM9,23.86a3.35,3.35,0,0,0-.62.43.38.38,0,0,0-.11.44A.4.4,0,0,0,8.6,25h2.33a.4.4,0,0,0,.41-.4v-.72Z" fill="#364556"/><path d="M10.76,15.29l.95,8.22H8.86l-.82-8.22Z" fill="#fff"/><path d="M11.71,23.86H8.86a.36.36,0,0,1-.37-.32l-.82-8.21a.37.37,0,0,1,.09-.28A.39.39,0,0,1,8,14.94h2.72a.37.37,0,0,1,.37.31l.95,8.22a.33.33,0,0,1-.09.27A.39.39,0,0,1,11.71,23.86Zm-2.52-.71H11.3l-.87-7.5h-2Z" fill="#364556"/><path d="M6.44,8S3.58,9.82,4.53,10.73c.61.58,1.27.19,1.91,0,.36-.11,1.9-.91,1.9-.91a1.23,1.23,0,0,1,0,1.82,6.59,6.59,0,0,1-3.19,1.13,2.8,2.8,0,0,1-2.67-1.43c-1.23-2.47,2.86-5.1,2.86-5.1l12.51-.08V8H11.19L15,11.64s-1.91,5.48-7.61,3.65V12.37l1-.73-1-.91h0Z" fill="#fff"/><path d="M9.6,16a7.77,7.77,0,0,1-2.33-.39A.36.36,0,0,1,7,15.29V12.72a6.06,6.06,0,0,1-1.85.41,3.19,3.19,0,0,1-3-1.64C.8,8.77,5,6.06,5.13,6a.37.37,0,0,1,.21-.06l12.51-.08a.47.47,0,0,1,.26.1.36.36,0,0,1,.11.25V8a.37.37,0,0,1-.37.36H12.09l3.17,3a.35.35,0,0,1,.09.36C15.33,11.8,13.81,16,9.6,16ZM7.76,15a5.43,5.43,0,0,0,6.81-3.3L10.93,8.24a.34.34,0,0,1-.08-.39.38.38,0,0,1,.34-.22h6.29V6.52l-12,.08c-.59.4-3.65,2.61-2.66,4.59a2.4,2.4,0,0,0,2.31,1.23,6.07,6.07,0,0,0,2.62-.84L7.12,11A.5.5,0,0,1,7,10.86a4.37,4.37,0,0,1-.49.21l-.31.1a1.73,1.73,0,0,1-2-.19.93.93,0,0,1-.29-.8C4.09,9.1,6,7.83,6.23,7.69a.42.42,0,0,1,.33,0,.37.37,0,0,1,.23.23l.68,2c.25-.12.5-.24.69-.35a.4.4,0,0,1,.44.06,1.56,1.56,0,0,1,0,2.33h0l-.81.62Zm0-4.49.59.56a.79.79,0,0,0-.05-.83Zm-1.47-2c-.7.51-1.48,1.24-1.53,1.69a.25.25,0,0,0,.09.23c.32.31.63.22,1.19,0l.34-.11a5,5,0,0,0,.48-.21Z" fill="#364556"/><ellipse cx="2.97" cy="2.85" rx="2.97" ry="2.85" transform="translate(3.94 1.03)" fill="#edba70"/><path d="M6.91,1.37A2.58,2.58,0,0,1,9.53,3.88,2.57,2.57,0,0,1,6.91,6.39,2.56,2.56,0,0,1,4.3,3.88,2.57,2.57,0,0,1,6.91,1.37m0-.68A3.26,3.26,0,0,0,3.58,3.88a3.26,3.26,0,0,0,3.33,3.2,3.26,3.26,0,0,0,3.33-3.2A3.26,3.26,0,0,0,6.91.69Z" fill="#364556"/><ellipse cx="1.55" cy="1.48" rx="1.55" ry="1.48" transform="translate(17.73 5.6)" fill="#edba70"/><path d="M19.28,5.94a1.14,1.14,0,1,1-1.19,1.14,1.17,1.17,0,0,1,1.19-1.14m0-.69a1.87,1.87,0,0,0-1.91,1.83,1.91,1.91,0,0,0,3.81,0A1.87,1.87,0,0,0,19.28,5.25Z" fill="#364556"/><ellipse cx="1.55" cy="1.48" rx="1.55" ry="1.48" transform="translate(7.26 8.79)" fill="#edba70"/><path d="M8.81,9.13a1.14,1.14,0,1,1-1.18,1.14A1.16,1.16,0,0,1,8.81,9.13m0-.68a1.83,1.83,0,1,0,1.91,1.82A1.86,1.86,0,0,0,8.81,8.45Z" fill="#364556"/><path d="M8.85,14.06a9.41,9.41,0,0,1-1.54-.13L7.47,13a5.07,5.07,0,0,0,4-.66,3.52,3.52,0,0,0,1.25-2.41h1a4.38,4.38,0,0,1-1.6,3.11,5.14,5.14,0,0,1-3.27,1.02Z" fill="#364556"/><rect width="4.76" height="0.71" transform="translate(4.53 2.16)" fill="#364556"/></g></svg>