<svg xmlns="http://www.w3.org/2000/svg" width="25.25" height="25.19" viewBox="0 0 25.25 25.19"><g transform="translate(-1312.875 -165.405)"><g transform="translate(1313 165.5)"><path d="M25.44,4.66A20.77,20.77,0,0,1,4.66,25.44h-.2A3.99,3.99,0,0,1,.47,21.45v-.2A20.78,20.78,0,0,1,21.28.5h.2a3.99,3.99,0,0,1,3.99,3.99Z" transform="translate(-0.47 -0.47)" fill="#ff7a2c" stroke="#364556" stroke-miterlimit="10" stroke-width="0.25"/><path d="M25.44,4.461v.2A20.78,20.78,0,0,1,4.65,25.44h-.19a3.99,3.99,0,0,1-3.851-3.1,3.551,3.551,0,0,0,.858.11h.19a20.78,20.78,0,0,0,20.79-20.78v-.2a3.551,3.551,0,0,0-.11-.858,3.99,3.99,0,0,1,3.1,3.851Z" transform="translate(-0.47 -0.47)" opacity="0.1"/><path d="M.5,21.479v-.2A20.78,20.78,0,0,1,21.29.5h.19A3.99,3.99,0,0,1,25.33,3.6a3.551,3.551,0,0,0-.858-.11h-.19a20.78,20.78,0,0,0-20.79,20.78v.2a3.551,3.551,0,0,0,.11.858A3.99,3.99,0,0,1,.5,21.479Z" transform="translate(-0.47 -0.47)" fill="#fff" opacity="0.2"/><line x1="21.94" y2="21.94" transform="translate(1.53 1.53)" fill="#fff" stroke="#fff" stroke-linecap="round" stroke-linejoin="round" stroke-width="0.75"/><line x2="2.83" y2="2.83" transform="translate(14.61 7.56)" fill="#fff" stroke="#fff" stroke-linecap="round" stroke-linejoin="round" stroke-width="0.75"/><line x2="2.82" y2="2.82" transform="translate(11.09 11.09)" fill="#fff" stroke="#fff" stroke-linecap="round" stroke-linejoin="round" stroke-width="0.75"/><line x2="2.83" y2="2.83" transform="translate(7.56 14.61)" fill="#fff" stroke="#fff" stroke-linecap="round" stroke-linejoin="round" stroke-width="0.75"/><path d="M21.28,1.248h.19A3.262,3.262,0,0,1,24.692,4.47v.19A20.027,20.027,0,0,1,4.66,24.692H4.47A3.262,3.262,0,0,1,1.248,21.47v-.19A20.062,20.062,0,0,1,21.28,1.248h0m0-.748h0A20.78,20.78,0,0,0,.5,21.28v.2a3.99,3.99,0,0,0,3.99,3.99h.2A20.77,20.77,0,0,0,25.44,4.66v-.2A3.99,3.99,0,0,0,21.45.47Z" transform="translate(-0.47 -0.47)" fill="#364556"/></g></g></svg>