<svg xmlns="http://www.w3.org/2000/svg" width="25" height="25" viewBox="0 0 25 25"><g transform="translate(-961 -167)"><g transform="translate(961 167)"><path d="M.65,21.17l5.61-5.64,3.22,3.24L3.87,24.41Z" transform="translate(-0.12 0)" fill="#99713c"/><path d="M6.26,16.06,9,18.77,3.87,23.88l-2.7-2.71,5.09-5.11m0-1.06L.12,21.17,3.87,25,10,18.77,6.26,15Z" transform="translate(-0.12 0)" fill="#364556"/><path d="M7.9,20.89,4.15,17.12l1.1-1.11L9,19.78Z" transform="translate(-0.12 0.012)" opacity="0.2"/><ellipse cx="3.1" cy="3.11" rx="3.1" ry="3.11" transform="translate(17.94 17.93)" fill="none" stroke="#364556" stroke-miterlimit="10" stroke-width="0.25"/><ellipse cx="3.1" cy="3.11" rx="3.1" ry="3.11" transform="translate(17.94 17.93)" fill="#ff7a2c" stroke="#524556" stroke-miterlimit="10" stroke-width="0.25"/><path d="M23.24,23.34a3.25,3.25,0,0,1,0-4.61l.17.17a3,3,0,0,0,0,4.28Z" transform="translate(-0.12 0)" fill="#fff" stroke="#fff" stroke-miterlimit="10" stroke-width="0.5"/><g transform="translate(17.88 17.889)" opacity="0.2"><path d="M18,21a3.09,3.09,0,0,1,5.63-1.78,3.06,3.06,0,0,0-1.76-.55,3.12,3.12,0,0,0-2.55,4.89A3.13,3.13,0,0,1,18,21Z" transform="translate(-18 -17.889)" fill="#fff"/></g><g transform="translate(18.49 18.44)" opacity="0.2"><path d="M24.25,21a3.1,3.1,0,0,1-5.64,1.78,3.11,3.11,0,0,0,4.31-4.34A3.1,3.1,0,0,1,24.25,21Z" transform="translate(-18.61 -18.44)"/></g><path d="M21.16,24.27a3.23,3.23,0,1,1,2.285-.967,3.23,3.23,0,0,1-2.285.967Zm0-6.23a1.246,1.246,0,1,0,0-.04Z" transform="translate(-0.12 0)" fill="#364556" stroke="#364556" stroke-miterlimit="10" stroke-width="0.4"/><path d="M6.26,16.06,9,18.77,3.87,23.88l-2.7-2.71,5.09-5.11m0-1.06L.12,21.17,3.87,25,10,18.77,6.26,15Z" transform="translate(-0.12 0)" fill="#364556"/><path d="M3.83,14.24,17.55.48l7.04,7.05L10.86,21.29Z" transform="translate(-0.12 0.06)" fill="#edba70"/><path d="M17.55,1l6.51,6.522L10.86,20.763l-6.5-6.522L17.55,1m0-1.057L3.3,14.241l7.56,7.589,14.26-14.3L17.55,0Z" transform="translate(-0.12 0.06)" fill="#364556"/><path d="M22.99,5.64,9.21,19.55l1.68,1.3L23.99,7.67Z" transform="translate(-0.12 0.025)" opacity="0.2"/><path d="M5.51,16.29,19.29,2.37,17.61,1.08,4.5,14.26Z" transform="translate(-0.12 0.06)" fill="#fff" opacity="0.2"/><path d="M17.55,1l6.51,6.522L10.86,20.763l-6.5-6.522L17.55,1m0-1.057L3.3,14.241l7.56,7.589,14.26-14.3L17.55,0Z" transform="translate(-0.12 0.06)" fill="#364556"/></g></g></svg>