<svg id="germany" xmlns="http://www.w3.org/2000/svg" width="22" height="16" viewBox="0 0 22 16">
  <path id="Path_907" data-name="Path 907" d="M2.444,0H19.556A2.491,2.491,0,0,1,22,2.581V13.419A2.491,2.491,0,0,1,19.556,16H2.444A2.491,2.491,0,0,1,0,13.419V2.581A2.491,2.491,0,0,1,2.444,0Z" fill="#d80027"/>
  <path id="Path_908" data-name="Path 908" d="M2.444,0H19.556A2.408,2.408,0,0,1,22,2.419V4.984H0V2.419A2.408,2.408,0,0,1,2.444,0Z"/>
  <path id="Path_909" data-name="Path 909" d="M0,20.7H22v2.565a2.408,2.408,0,0,1-2.444,2.419H2.444A2.408,2.408,0,0,1,0,23.265Z" transform="translate(0 -9.684)" fill="#ffda44"/>
</svg>
